<?xml version='1.0' encoding='utf-8'?>
<svg xmlns="http://www.w3.org/2000/svg" version="1.1" viewBox="-13.0234 -12.0156 123.0234 112.92160000000001">
 <g>
  <path d="m81.816 7.5703c0 2.0156-3.0195 2.0156-3.0195 0 0-2.0117 3.0195-2.0117 3.0195 0" />
  <path d="m87.879 7.5703c0 2.0156-3.0234 2.0156-3.0234 0 0-2.0117 3.0234-2.0117 3.0234 0" />
  <path d="m75.754 7.5703c0 2.0156-3.0195 2.0156-3.0195 0 0-2.0117 3.0195-2.0117 3.0195 0" />
  <path d="m81.816 13.633c0 2.0117-3.0195 2.0117-3.0195 0 0-2.0156 3.0195-2.0156 3.0195 0" />
  <path d="m87.879 13.633c0 2.0117-3.0234 2.0117-3.0234 0 0-2.0156 3.0234-2.0156 3.0234 0" />
  <path d="m93.938 13.633c0 2.0117-3.0195 2.0117-3.0195 0 0-2.0156 3.0195-2.0156 3.0195 0" />
  <path d="m69.695 13.633c0 2.0117-3.0234 2.0117-3.0234 0 0-2.0156 3.0234-2.0156 3.0234 0" />
  <path d="m75.754 13.633c0 2.0117-3.0195 2.0117-3.0195 0 0-2.0156 3.0195-2.0156 3.0195 0" />
  <path d="m81.816 19.695c0 2.0117-3.0195 2.0117-3.0195 0 0-2.0156 3.0195-2.0156 3.0195 0" />
  <path d="m87.879 19.695c0 2.0117-3.0234 2.0117-3.0234 0 0-2.0156 3.0234-2.0156 3.0234 0" />
  <path d="m93.938 19.695c0 2.0117-3.0195 2.0117-3.0195 0 0-2.0156 3.0195-2.0156 3.0195 0" />
  <path d="m63.633 19.695c0 2.0117-3.0195 2.0117-3.0195 0 0-2.0156 3.0195-2.0156 3.0195 0" />
  <path d="m69.695 19.695c0 2.0117-3.0234 2.0117-3.0234 0 0-2.0156 3.0234-2.0156 3.0234 0" />
  <path d="m75.754 19.695c0 2.0117-3.0195 2.0117-3.0195 0 0-2.0156 3.0195-2.0156 3.0195 0" />
  <path d="m81.816 25.754c0 2.0156-3.0195 2.0156-3.0195 0 0-2.0117 3.0195-2.0117 3.0195 0" />
  <path d="m87.879 25.754c0 2.0156-3.0234 2.0156-3.0234 0 0-2.0117 3.0234-2.0117 3.0234 0" />
  <path d="m93.938 25.754c0 2.0156-3.0195 2.0156-3.0195 0 0-2.0117 3.0195-2.0117 3.0195 0" />
  <path d="m57.57 25.754c0 2.0156-3.0195 2.0156-3.0195 0 0-2.0117 3.0195-2.0117 3.0195 0" />
  <path d="m63.633 25.754c0 2.0156-3.0195 2.0156-3.0195 0 0-2.0117 3.0195-2.0117 3.0195 0" />
  <path d="m69.695 25.754c0 2.0156-3.0234 2.0156-3.0234 0 0-2.0117 3.0234-2.0117 3.0234 0" />
  <path d="m75.754 25.754c0 2.0156-3.0195 2.0156-3.0195 0 0-2.0117 3.0195-2.0117 3.0195 0" />
  <path d="m81.816 31.816c0 2.0117-3.0195 2.0117-3.0195 0 0-2.0156 3.0195-2.0156 3.0195 0" />
  <path d="m87.879 31.816c0 2.0117-3.0234 2.0117-3.0234 0 0-2.0156 3.0234-2.0156 3.0234 0" />
  <path d="m93.938 31.816c0 2.0117-3.0195 2.0117-3.0195 0 0-2.0156 3.0195-2.0156 3.0195 0" />
  <path d="m51.512 31.816c0 2.0117-3.0234 2.0117-3.0234 0 0-2.0156 3.0234-2.0156 3.0234 0" />
  <path d="m57.57 31.816c0 2.0117-3.0195 2.0117-3.0195 0 0-2.0156 3.0195-2.0156 3.0195 0" />
  <path d="m63.633 31.816c0 2.0117-3.0195 2.0117-3.0195 0 0-2.0156 3.0195-2.0156 3.0195 0" />
  <path d="m69.695 31.816c0 2.0117-3.0234 2.0117-3.0234 0 0-2.0156 3.0234-2.0156 3.0234 0" />
  <path d="m75.754 31.816c0 2.0117-3.0195 2.0117-3.0195 0 0-2.0156 3.0195-2.0156 3.0195 0" />
  <path d="m81.816 37.879c0 2.0117-3.0195 2.0117-3.0195 0 0-2.0156 3.0195-2.0156 3.0195 0" />
  <path d="m87.879 37.879c0 2.0117-3.0234 2.0117-3.0234 0 0-2.0156 3.0234-2.0156 3.0234 0" />
  <path d="m51.512 37.879c0 2.0117-3.0234 2.0117-3.0234 0 0-2.0156 3.0234-2.0156 3.0234 0" />
  <path d="m57.57 37.879c0 2.0117-3.0195 2.0117-3.0195 0 0-2.0156 3.0195-2.0156 3.0195 0" />
  <path d="m63.633 37.879c0 2.0117-3.0195 2.0117-3.0195 0 0-2.0156 3.0195-2.0156 3.0195 0" />
  <path d="m69.695 37.879c0 2.0117-3.0234 2.0117-3.0234 0 0-2.0156 3.0234-2.0156 3.0234 0" />
  <path d="m75.754 37.879c0 2.0117-3.0195 2.0117-3.0195 0 0-2.0156 3.0195-2.0156 3.0195 0" />
  <path d="m80.305 42.43c-0.83594 0-1.5117 0.68359-1.5117 1.5195 0 0.83594 0.67188 1.5117 1.5117 1.5117 0.83594 0 1.5117-0.67188 1.5117-1.5117 0-0.83594-0.67188-1.5195-1.5117-1.5195z" />
  <path d="m86.367 42.43c-0.83594 0-1.5117 0.68359-1.5117 1.5195 0 0.83594 0.67188 1.5117 1.5117 1.5117 0.83594 0 1.5117-0.67188 1.5117-1.5117 0-0.83594-0.67188-1.5195-1.5117-1.5195z" />
  <path d="m92.43 42.43c-0.83594 0-1.5117 0.68359-1.5117 1.5195 0 0.83594 0.67188 1.5117 1.5117 1.5117 0.83594 0 1.5117-0.67188 1.5117-1.5117 0-0.83594-0.67188-1.5195-1.5117-1.5195z" />
  <path d="m98.488 45.461c0.83594 0 1.5117-0.67188 1.5117-1.5117 0-0.83594-0.67188-1.5195-1.5117-1.5195-0.83594 0-1.5117 0.68359-1.5117 1.5195 0 0.83594 0.67188 1.5117 1.5117 1.5117z" />
  <path d="m50 42.43c-0.83594 0-1.5117 0.68359-1.5117 1.5195 0 0.83594 0.67188 1.5117 1.5117 1.5117 0.83594 0 1.5117-0.67188 1.5117-1.5117 0-0.83594-0.68359-1.5195-1.5117-1.5195z" />
  <path d="m56.062 42.43c-0.83594 0-1.5117 0.68359-1.5117 1.5195 0 0.83594 0.67188 1.5117 1.5117 1.5117 0.83594 0 1.5117-0.67188 1.5117-1.5117 0-0.83594-0.68359-1.5195-1.5117-1.5195z" />
  <path d="m62.121 42.43c-0.83594 0-1.5117 0.68359-1.5117 1.5195 0 0.83594 0.67188 1.5117 1.5117 1.5117 0.83594 0 1.5117-0.67188 1.5117-1.5117 0-0.83594-0.68359-1.5195-1.5117-1.5195z" />
  <path d="m68.184 42.43c-0.83594 0-1.5117 0.68359-1.5117 1.5195 0 0.83594 0.67188 1.5117 1.5117 1.5117 0.83594 0 1.5117-0.67188 1.5117-1.5117 0-0.83594-0.68359-1.5195-1.5117-1.5195z" />
  <path d="m74.246 42.43c-0.83594 0-1.5117 0.68359-1.5117 1.5195 0 0.83594 0.67188 1.5117 1.5117 1.5117 0.83594 0 1.5117-0.67188 1.5117-1.5117 0-0.83594-0.67187-1.5195-1.5117-1.5195z" />
  <path d="m81.816 50c0 2.0117-3.0195 2.0117-3.0195 0s3.0195-2.0117 3.0195 0" />
  <path d="m87.879 50c0 2.0117-3.0234 2.0117-3.0234 0s3.0234-2.0117 3.0234 0" />
  <path d="m93.938 50c0 2.0117-3.0195 2.0117-3.0195 0s3.0195-2.0117 3.0195 0" />
  <path d="m100 50c0 2.0117-3.0195 2.0117-3.0195 0s3.0195-2.0117 3.0195 0" />
  <path d="m51.512 50c0 2.0117-3.0234 2.0117-3.0234 0s3.0234-2.0117 3.0234 0" />
  <path d="m57.57 50c0 2.0117-3.0195 2.0117-3.0195 0s3.0195-2.0117 3.0195 0" />
  <path d="m63.633 50c0 2.0117-3.0195 2.0117-3.0195 0s3.0195-2.0117 3.0195 0" />
  <path d="m69.695 50c0 2.0117-3.0234 2.0117-3.0234 0s3.0234-2.0117 3.0234 0" />
  <path d="m75.754 50c0 2.0117-3.0195 2.0117-3.0195 0s3.0195-2.0117 3.0195 0" />
  <path d="m19.695 24.246c-0.83594 0-1.5117 0.67188-1.5117 1.5117 0 0.83594 0.67188 1.5117 1.5117 1.5117 0.83594 0 1.5117-0.68359 1.5117-1.5117 0-0.82812-0.67188-1.5117-1.5117-1.5117z" />
  <path d="m19.695 30.305c-0.83594 0-1.5117 0.67187-1.5117 1.5117 0 0.83594 0.67188 1.5117 1.5117 1.5117 0.83594 0 1.5117-0.68359 1.5117-1.5117s-0.67188-1.5117-1.5117-1.5117z" />
  <path d="m39.387 31.816c0 2.0117-3.0195 2.0117-3.0195 0 0-2.0156 3.0195-2.0156 3.0195 0" />
  <path d="m45.449 31.816c0 2.0117-3.0195 2.0117-3.0195 0 0-2.0156 3.0195-2.0156 3.0195 0" />
  <path d="m19.695 36.367c-0.83594 0-1.5117 0.67187-1.5117 1.5117 0 0.83594 0.67188 1.5117 1.5117 1.5117 0.83594 0 1.5117-0.68359 1.5117-1.5117s-0.67188-1.5117-1.5117-1.5117z" />
  <path d="m33.328 37.879c0 2.0117-3.0234 2.0117-3.0234 0 0-2.0156 3.0234-2.0156 3.0234 0" />
  <path d="m39.387 37.879c0 2.0117-3.0195 2.0117-3.0195 0 0-2.0156 3.0195-2.0156 3.0195 0" />
  <path d="m45.449 37.879c0 2.0117-3.0195 2.0117-3.0195 0 0-2.0156 3.0195-2.0156 3.0195 0" />
  <path d="m19.695 42.43c-0.83594 0-1.5117 0.68359-1.5117 1.5195 0 0.83594 0.67188 1.5117 1.5117 1.5117 0.83594 0 1.5117-0.67188 1.5117-1.5117 0-0.83594-0.67188-1.5195-1.5117-1.5195z" />
  <path d="m25.754 42.43c-0.83594 0-1.5117 0.68359-1.5117 1.5195 0 0.83594 0.67187 1.5117 1.5117 1.5117 0.83594 0 1.5117-0.67188 1.5117-1.5117 0-0.83594-0.68359-1.5195-1.5117-1.5195z" />
  <path d="m31.816 42.43c-0.83594 0-1.5117 0.68359-1.5117 1.5195 0 0.83594 0.67187 1.5117 1.5117 1.5117 0.83594 0 1.5117-0.67188 1.5117-1.5117 0-0.83594-0.68359-1.5195-1.5117-1.5195z" />
  <path d="m37.879 42.43c-0.83594 0-1.5117 0.68359-1.5117 1.5195 0 0.83594 0.67187 1.5117 1.5117 1.5117 0.83594 0 1.5117-0.67188 1.5117-1.5117 0-0.83594-0.68359-1.5195-1.5117-1.5195z" />
  <path d="m43.938 42.43c-0.83594 0-1.5117 0.68359-1.5117 1.5195 0 0.83594 0.67188 1.5117 1.5117 1.5117 0.83594 0 1.5117-0.67188 1.5117-1.5117 0-0.83594-0.68359-1.5195-1.5117-1.5195z" />
  <path d="m19.695 48.488c-0.83594 0-1.5117 0.68359-1.5117 1.5117s0.67188 1.5117 1.5117 1.5117c0.83594 0 1.5117-0.67188 1.5117-1.5117 0-0.83594-0.67188-1.5117-1.5117-1.5117z" />
  <path d="m27.266 50c0 2.0117-3.0195 2.0117-3.0195 0s3.0195-2.0117 3.0195 0" />
  <path d="m33.328 50c0 2.0117-3.0234 2.0117-3.0234 0s3.0234-2.0117 3.0234 0" />
  <path d="m39.387 50c0 2.0117-3.0195 2.0117-3.0195 0s3.0195-2.0117 3.0195 0" />
  <path d="m45.449 50c0 2.0117-3.0195 2.0117-3.0195 0s3.0195-2.0117 3.0195 0" />
  <path d="m81.816 56.062c0 2.0117-3.0195 2.0117-3.0195 0 0-2.0156 3.0195-2.0156 3.0195 0" />
  <path d="m87.879 56.062c0 2.0117-3.0234 2.0117-3.0234 0 0-2.0156 3.0234-2.0156 3.0234 0" />
  <path d="m93.938 56.062c0 2.0117-3.0195 2.0117-3.0195 0 0-2.0156 3.0195-2.0156 3.0195 0" />
  <path d="m51.512 56.062c0 2.0117-3.0234 2.0117-3.0234 0 0-2.0156 3.0234-2.0156 3.0234 0" />
  <path d="m57.57 56.062c0 2.0117-3.0195 2.0117-3.0195 0 0-2.0156 3.0195-2.0156 3.0195 0" />
  <path d="m63.633 56.062c0 2.0117-3.0195 2.0117-3.0195 0 0-2.0156 3.0195-2.0156 3.0195 0" />
  <path d="m81.816 62.121c0 2.0156-3.0195 2.0156-3.0195 0 0-2.0117 3.0195-2.0117 3.0195 0" />
  <path d="m87.879 62.121c0 2.0156-3.0234 2.0156-3.0234 0 0-2.0117 3.0234-2.0117 3.0234 0" />
  <path d="m51.512 62.121c0 2.0156-3.0234 2.0156-3.0234 0 0-2.0117 3.0234-2.0117 3.0234 0" />
  <path d="m57.57 62.121c0 2.0156-3.0195 2.0156-3.0195 0 0-2.0117 3.0195-2.0117 3.0195 0" />
  <path d="m63.633 62.121c0 2.0156-3.0195 2.0156-3.0195 0 0-2.0117 3.0195-2.0117 3.0195 0" />
  <path d="m81.816 68.184c0 2.0156-3.0195 2.0156-3.0195 0 0-2.0117 3.0195-2.0117 3.0195 0" />
  <path d="m51.512 68.184c0 2.0156-3.0234 2.0156-3.0234 0 0-2.0117 3.0234-2.0117 3.0234 0" />
  <path d="m57.57 68.184c0 2.0156-3.0195 2.0156-3.0195 0 0-2.0117 3.0195-2.0117 3.0195 0" />
  <path d="m63.633 68.184c0 2.0156-3.0195 2.0156-3.0195 0 0-2.0117 3.0195-2.0117 3.0195 0" />
  <path d="m69.695 68.184c0 2.0156-3.0234 2.0156-3.0234 0 0-2.0117 3.0234-2.0117 3.0234 0" />
  <path d="m75.754 68.184c0 2.0156-3.0195 2.0156-3.0195 0 0-2.0117 3.0195-2.0117 3.0195 0" />
  <path d="m51.512 74.246c0 2.0117-3.0234 2.0117-3.0234 0 0-2.0156 3.0234-2.0156 3.0234 0" />
  <path d="m57.57 74.246c0 2.0117-3.0195 2.0117-3.0195 0 0-2.0156 3.0195-2.0156 3.0195 0" />
  <path d="m63.633 74.246c0 2.0117-3.0195 2.0117-3.0195 0 0-2.0156 3.0195-2.0156 3.0195 0" />
  <path d="m69.695 74.246c0 2.0117-3.0234 2.0117-3.0234 0 0-2.0156 3.0234-2.0156 3.0234 0" />
  <path d="m75.754 74.246c0 2.0117-3.0195 2.0117-3.0195 0 0-2.0156 3.0195-2.0156 3.0195 0" />
  <path d="m51.512 80.305c0 2.0156-3.0234 2.0156-3.0234 0 0-2.0117 3.0234-2.0117 3.0234 0" />
  <path d="m57.57 80.305c0 2.0156-3.0195 2.0156-3.0195 0 0-2.0117 3.0195-2.0117 3.0195 0" />
  <path d="m63.633 80.305c0 2.0156-3.0195 2.0156-3.0195 0 0-2.0117 3.0195-2.0117 3.0195 0" />
  <path d="m69.695 80.305c0 2.0156-3.0234 2.0156-3.0234 0 0-2.0117 3.0234-2.0117 3.0234 0" />
  <path d="m51.512 86.367c0 2.0156-3.0234 2.0156-3.0234 0 0-2.0117 3.0234-2.0117 3.0234 0" />
  <path d="m57.57 86.367c0 2.0156-3.0195 2.0156-3.0195 0 0-2.0117 3.0195-2.0117 3.0195 0" />
  <path d="m63.633 86.367c0 2.0156-3.0195 2.0156-3.0195 0 0-2.0117 3.0195-2.0117 3.0195 0" />
  <path d="m50 90.906c-0.83594 0-1.5117 0.67188-1.5117 1.5117 0 0.83594 0.67188 1.5195 1.5117 1.5195 0.83594 0 1.5117-0.68359 1.5117-1.5195 0-0.83594-0.68359-1.5117-1.5117-1.5117z" />
  <path d="m19.695 54.551c-0.83594 0-1.5117 0.68359-1.5117 1.5117s0.67188 1.5117 1.5117 1.5117c0.83594 0 1.5117-0.67188 1.5117-1.5117 0-0.83594-0.67188-1.5117-1.5117-1.5117z" />
  <path d="m27.266 56.062c0 2.0117-3.0195 2.0117-3.0195 0 0-2.0156 3.0195-2.0156 3.0195 0" />
  <path d="m33.328 56.062c0 2.0117-3.0234 2.0117-3.0234 0 0-2.0156 3.0234-2.0156 3.0234 0" />
  <path d="m39.387 56.062c0 2.0117-3.0195 2.0117-3.0195 0 0-2.0156 3.0195-2.0156 3.0195 0" />
  <path d="m45.449 56.062c0 2.0117-3.0195 2.0117-3.0195 0 0-2.0156 3.0195-2.0156 3.0195 0" />
  <path d="m1.5117 54.551c-0.83594 0-1.5117 0.68359-1.5117 1.5117s0.67188 1.5117 1.5117 1.5117c0.83594 0 1.5117-0.67188 1.5117-1.5117 0-0.83594-0.67188-1.5117-1.5117-1.5117z" />
  <path d="m1.5117 48.488c-0.83594 0-1.5117 0.68359-1.5117 1.5117s0.67188 1.5117 1.5117 1.5117c0.83594 0 1.5117-0.67188 1.5117-1.5117 0-0.83594-0.67188-1.5117-1.5117-1.5117z" />
  <path d="m7.5703 54.551c-0.83594 0-1.5117 0.68359-1.5117 1.5117s0.67188 1.5117 1.5117 1.5117c0.83594 0 1.5117-0.67188 1.5117-1.5117 0-0.83594-0.67188-1.5117-1.5117-1.5117z" />
  <path d="m13.633 54.551c-0.83594 0-1.5117 0.68359-1.5117 1.5117s0.67188 1.5117 1.5117 1.5117c0.83594 0 1.5117-0.67188 1.5117-1.5117 0-0.83594-0.67188-1.5117-1.5117-1.5117z" />
  <path d="m19.695 60.602c-0.83594 0-1.5117 0.68359-1.5117 1.5117s0.67188 1.5117 1.5117 1.5117c0.83594 0 1.5117-0.67188 1.5117-1.5117 0-0.83594-0.67188-1.5117-1.5117-1.5117z" />
  <path d="m27.266 62.121c0 2.0156-3.0195 2.0156-3.0195 0 0-2.0117 3.0195-2.0117 3.0195 0" />
  <path d="m33.328 62.121c0 2.0156-3.0234 2.0156-3.0234 0 0-2.0117 3.0234-2.0117 3.0234 0" />
  <path d="m39.387 62.121c0 2.0156-3.0195 2.0156-3.0195 0 0-2.0117 3.0195-2.0117 3.0195 0" />
  <path d="m45.449 62.121c0 2.0156-3.0195 2.0156-3.0195 0 0-2.0117 3.0195-2.0117 3.0195 0" />
  <path d="m1.5117 60.602c-0.83594 0-1.5117 0.68359-1.5117 1.5117s0.67188 1.5117 1.5117 1.5117c0.83594 0 1.5117-0.67188 1.5117-1.5117 0-0.83594-0.67188-1.5117-1.5117-1.5117z" />
  <path d="m7.5703 60.602c-0.83594 0-1.5117 0.68359-1.5117 1.5117s0.67188 1.5117 1.5117 1.5117c0.83594 0 1.5117-0.67188 1.5117-1.5117 0-0.83594-0.67188-1.5117-1.5117-1.5117z" />
  <path d="m13.633 60.602c-0.83594 0-1.5117 0.68359-1.5117 1.5117s0.67188 1.5117 1.5117 1.5117c0.83594 0 1.5117-0.67188 1.5117-1.5117 0-0.83594-0.67188-1.5117-1.5117-1.5117z" />
  <path d="m19.695 66.664c-0.83594 0-1.5117 0.68359-1.5117 1.5117s0.67188 1.5117 1.5117 1.5117c0.83594 0 1.5117-0.68359 1.5117-1.5117s-0.67188-1.5117-1.5117-1.5117z" />
  <path d="m27.266 68.184c0 2.0156-3.0195 2.0156-3.0195 0 0-2.0117 3.0195-2.0117 3.0195 0" />
  <path d="m33.328 68.184c0 2.0156-3.0234 2.0156-3.0234 0 0-2.0117 3.0234-2.0117 3.0234 0" />
  <path d="m39.387 68.184c0 2.0156-3.0195 2.0156-3.0195 0 0-2.0117 3.0195-2.0117 3.0195 0" />
  <path d="m45.449 68.184c0 2.0156-3.0195 2.0156-3.0195 0 0-2.0117 3.0195-2.0117 3.0195 0" />
  <path d="m7.5703 66.664c-0.83594 0-1.5117 0.68359-1.5117 1.5117s0.67188 1.5117 1.5117 1.5117c0.83594 0 1.5117-0.68359 1.5117-1.5117s-0.67188-1.5117-1.5117-1.5117z" />
  <path d="m13.633 66.664c-0.83594 0-1.5117 0.68359-1.5117 1.5117s0.67188 1.5117 1.5117 1.5117c0.83594 0 1.5117-0.68359 1.5117-1.5117s-0.67188-1.5117-1.5117-1.5117z" />
  <path d="m19.695 72.723c-0.83594 0-1.5117 0.67188-1.5117 1.5117 0 0.83594 0.67188 1.5117 1.5117 1.5117 0.83594 0 1.5117-0.68359 1.5117-1.5117s-0.67188-1.5117-1.5117-1.5117z" />
  <path d="m27.266 74.246c0 2.0117-3.0195 2.0117-3.0195 0 0-2.0156 3.0195-2.0156 3.0195 0" />
  <path d="m33.328 74.246c0 2.0117-3.0234 2.0117-3.0234 0 0-2.0156 3.0234-2.0156 3.0234 0" />
  <path d="m39.387 74.246c0 2.0117-3.0195 2.0117-3.0195 0 0-2.0156 3.0195-2.0156 3.0195 0" />
  <path d="m45.449 74.246c0 2.0117-3.0195 2.0117-3.0195 0 0-2.0156 3.0195-2.0156 3.0195 0" />
  <path d="m13.633 72.723c-0.83594 0-1.5117 0.67188-1.5117 1.5117 0 0.83594 0.67188 1.5117 1.5117 1.5117 0.83594 0 1.5117-0.68359 1.5117-1.5117s-0.67188-1.5117-1.5117-1.5117z" />
  <path d="m19.695 78.785c-0.83594 0-1.5117 0.67188-1.5117 1.5117 0 0.83594 0.67188 1.5117 1.5117 1.5117 0.83594 0 1.5117-0.68359 1.5117-1.5117s-0.67188-1.5117-1.5117-1.5117z" />
  <path d="m27.266 80.305c0 2.0156-3.0195 2.0156-3.0195 0 0-2.0117 3.0195-2.0117 3.0195 0" />
  <path d="m33.328 80.305c0 2.0156-3.0234 2.0156-3.0234 0 0-2.0117 3.0234-2.0117 3.0234 0" />
  <path d="m39.387 80.305c0 2.0156-3.0195 2.0156-3.0195 0 0-2.0117 3.0195-2.0117 3.0195 0" />
  <path d="m45.449 80.305c0 2.0156-3.0195 2.0156-3.0195 0 0-2.0117 3.0195-2.0117 3.0195 0" />
  <path d="m13.633 78.785c-0.83594 0-1.5117 0.67188-1.5117 1.5117 0 0.83594 0.67188 1.5117 1.5117 1.5117 0.83594 0 1.5117-0.68359 1.5117-1.5117s-0.67188-1.5117-1.5117-1.5117z" />
  <path d="m19.695 84.848c-0.83594 0-1.5117 0.67188-1.5117 1.5117 0 0.83594 0.67188 1.5117 1.5117 1.5117 0.83594 0 1.5117-0.68359 1.5117-1.5117s-0.67188-1.5117-1.5117-1.5117z" />
  <path d="m27.266 86.367c0 2.0156-3.0195 2.0156-3.0195 0 0-2.0117 3.0195-2.0117 3.0195 0" />
  <path d="m33.328 86.367c0 2.0156-3.0234 2.0156-3.0234 0 0-2.0117 3.0234-2.0117 3.0234 0" />
  <path d="m39.387 86.367c0 2.0156-3.0195 2.0156-3.0195 0 0-2.0117 3.0195-2.0117 3.0195 0" />
  <path d="m45.449 86.367c0 2.0156-3.0195 2.0156-3.0195 0 0-2.0117 3.0195-2.0117 3.0195 0" />
  <path d="m7.5703 84.848c-0.83594 0-1.5117 0.67188-1.5117 1.5117 0 0.83594 0.67188 1.5117 1.5117 1.5117 0.83594 0 1.5117-0.68359 1.5117-1.5117s-0.67188-1.5117-1.5117-1.5117z" />
  <path d="m13.633 84.848c-0.83594 0-1.5117 0.67188-1.5117 1.5117 0 0.83594 0.67188 1.5117 1.5117 1.5117 0.83594 0 1.5117-0.68359 1.5117-1.5117s-0.67188-1.5117-1.5117-1.5117z" />
  <path d="m19.695 90.906c-0.83594 0-1.5117 0.67188-1.5117 1.5117 0 0.83594 0.67188 1.5195 1.5117 1.5195 0.83594 0 1.5117-0.68359 1.5117-1.5195 0-0.83594-0.67188-1.5117-1.5117-1.5117z" />
  <path d="m25.754 90.906c-0.83594 0-1.5117 0.67188-1.5117 1.5117 0 0.83594 0.67187 1.5195 1.5117 1.5195 0.83594 0 1.5117-0.68359 1.5117-1.5195 0-0.83594-0.68359-1.5117-1.5117-1.5117z" />
  <path d="m31.816 90.906c-0.83594 0-1.5117 0.67188-1.5117 1.5117 0 0.83594 0.67187 1.5195 1.5117 1.5195 0.83594 0 1.5117-0.68359 1.5117-1.5195 0-0.83594-0.68359-1.5117-1.5117-1.5117z" />
  <path d="m37.879 90.906c-0.83594 0-1.5117 0.67188-1.5117 1.5117 0 0.83594 0.67187 1.5195 1.5117 1.5195 0.83594 0 1.5117-0.68359 1.5117-1.5195 0-0.83594-0.68359-1.5117-1.5117-1.5117z" />
  <path d="m43.938 90.906c-0.83594 0-1.5117 0.67188-1.5117 1.5117 0 0.83594 0.67188 1.5195 1.5117 1.5195 0.83594 0 1.5117-0.68359 1.5117-1.5195 0-0.83594-0.68359-1.5117-1.5117-1.5117z" />
  <path d="m13.633 90.906c-0.83594 0-1.5117 0.67188-1.5117 1.5117 0 0.83594 0.67188 1.5195 1.5117 1.5195 0.83594 0 1.5117-0.68359 1.5117-1.5195 0-0.83594-0.67188-1.5117-1.5117-1.5117z" />
 </g>
<text x="0.0" y="117.5" font-size="5.0" font-weight="bold" font-family="Arbeit Regular, Helvetica, Arial-Unicode, Arial, Sans-serif" fill="#000000">Created by Carlos von Dessauer</text><text x="0.0" y="122.5" font-size="5.0" font-weight="bold" font-family="Arbeit Regular, Helvetica, Arial-Unicode, Arial, Sans-serif" fill="#000000">from Noun Project</text></svg>