<?xml version='1.0' encoding='utf-8'?>
<svg xmlns="http://www.w3.org/2000/svg" viewBox="-2.0 -2.0 90.12 102.0" x="0px" y="0px"><g><g><circle cx="49" cy="7.42" r="1.48" /><circle cx="49" cy="37.12" r="1.48" /><circle cx="49" cy="43.06" r="1.48" /><circle cx="54.94" cy="43.06" r="1.48" /><circle cx="49" cy="49" r="1.48" /><circle cx="54.94" cy="49" r="1.48" /><circle cx="60.88" cy="49" r="1.48" /><circle cx="66.82" cy="49" r="1.48" /><circle cx="31.18" cy="1.48" r="1.48" /><circle cx="37.12" cy="1.48" r="1.48" /><circle cx="19.3" cy="7.42" r="1.48" /><circle cx="25.24" cy="7.42" r="1.48" /><circle cx="31.18" cy="7.42" r="1.48" /><circle cx="37.12" cy="7.42" r="1.48" /><circle cx="43.06" cy="7.42" r="1.48" /><circle cx="19.3" cy="13.36" r="1.48" /><circle cx="25.24" cy="13.36" r="1.48" /><circle cx="31.18" cy="13.36" r="1.48" /><circle cx="37.12" cy="13.36" r="1.48" /><circle cx="43.06" cy="13.36" r="1.48" /><circle cx="7.42" cy="13.36" r="1.48" /><circle cx="13.36" cy="13.36" r="1.48" /><circle cx="19.3" cy="19.3" r="1.48" /><circle cx="25.24" cy="19.3" r="1.48" /><circle cx="31.18" cy="19.3" r="1.48" /><circle cx="37.12" cy="19.3" r="1.48" /><circle cx="43.06" cy="19.3" r="1.48" /><circle cx="1.48" cy="19.3" r="1.48" /><circle cx="7.42" cy="19.3" r="1.48" /><circle cx="13.36" cy="19.3" r="1.48" /><circle cx="19.3" cy="25.24" r="1.48" /><circle cx="25.24" cy="25.24" r="1.48" /><circle cx="31.18" cy="25.24" r="1.48" /><circle cx="37.12" cy="25.24" r="1.48" /><circle cx="7.42" cy="25.24" r="1.48" /><circle cx="13.36" cy="25.24" r="1.48" /><circle cx="31.18" cy="31.18" r="1.48" /><circle cx="37.12" cy="31.18" r="1.48" /><circle cx="43.06" cy="31.18" r="1.48" /><circle cx="7.42" cy="31.18" r="1.48" /><circle cx="31.18" cy="37.12" r="1.48" /><circle cx="37.12" cy="37.12" r="1.48" /><circle cx="43.06" cy="37.12" r="1.48" /><circle cx="37.12" cy="43.06" r="1.48" /><circle cx="43.06" cy="43.06" r="1.48" /><circle cx="37.12" cy="49" r="1.48" /><circle cx="43.06" cy="49" r="1.48" /><circle cx="49" cy="54.94" r="1.48" /><circle cx="54.94" cy="54.94" r="1.48" /><circle cx="60.88" cy="54.94" r="1.48" /><circle cx="66.82" cy="54.94" r="1.48" /><circle cx="72.76" cy="54.94" r="1.48" /><circle cx="78.7" cy="60.88" r="1.48" /><circle cx="84.64" cy="60.88" r="1.48" /><circle cx="54.94" cy="60.88" r="1.48" /><circle cx="60.88" cy="60.88" r="1.48" /><circle cx="66.82" cy="60.88" r="1.48" /><circle cx="72.76" cy="60.88" r="1.48" /><circle cx="66.82" cy="66.82" r="1.48" /><circle cx="72.76" cy="66.82" r="1.48" /><circle cx="78.7" cy="72.76" r="1.48" /><circle cx="72.76" cy="72.76" r="1.48" /><circle cx="78.7" cy="78.7" r="1.48" /><circle cx="72.76" cy="78.7" r="1.48" /><circle cx="72.76" cy="84.64" r="1.48" /><circle cx="54.94" cy="90.58" r="1.48" /><circle cx="60.88" cy="90.58" r="1.48" /><circle cx="54.94" cy="96.52" r="1.48" /><circle cx="60.88" cy="96.52" r="1.48" /><circle cx="66.82" cy="96.52" r="1.48" /><circle cx="43.06" cy="54.94" r="1.48" /><circle cx="19.3" cy="60.88" r="1.48" /><circle cx="13.36" cy="60.88" r="1.48" /><circle cx="19.3" cy="66.82" r="1.48" /><circle cx="13.36" cy="66.82" r="1.48" /><circle cx="19.3" cy="72.76" r="1.48" /><circle cx="13.36" cy="72.76" r="1.48" /></g></g></svg>