<?xml version='1.0' encoding='utf-8'?>
<svg xmlns="http://www.w3.org/2000/svg" version="1.1" viewBox="-5.2265999999999995 -4.1523 104.0036 104.5393">
 <g>
  <path d="m75.805 0c-0.88672 0-1.6133 0.72266-1.6133 1.6133 0 0.88672 0.72266 1.6133 1.6133 1.6133 0.88672 0 1.6133-0.72266 1.6133-1.6133 0-0.88672-0.72266-1.6133-1.6133-1.6133z" />
  <path d="m82.254 6.4492c-0.88672 0-1.6133 0.72266-1.6133 1.6133 0 0.88672 0.72266 1.6133 1.6133 1.6133 0.88672 0 1.6133-0.72266 1.6133-1.6133 0-0.88672-0.72266-1.6133-1.6133-1.6133z" />
  <path d="m88.703 6.4492c-0.88672 0-1.6133 0.72266-1.6133 1.6133 0 0.88672 0.72266 1.6133 1.6133 1.6133 0.88672 0 1.6133-0.72266 1.6133-1.6133 0-0.88672-0.72266-1.6133-1.6133-1.6133z" />
  <path d="m96.777 8.0625c0 2.1484-3.2266 2.1484-3.2266 0 0-2.1523 3.2266-2.1523 3.2266 0" />
  <path d="m75.805 6.4492c-0.88672 0-1.6133 0.72266-1.6133 1.6133 0 0.88672 0.72266 1.6133 1.6133 1.6133 0.88672 0 1.6133-0.72266 1.6133-1.6133 0-0.88672-0.72266-1.6133-1.6133-1.6133z" />
  <path d="m82.254 12.906c-0.88672 0-1.6133 0.72266-1.6133 1.6133 0 0.88672 0.72266 1.6133 1.6133 1.6133 0.88672 0 1.6133-0.72266 1.6133-1.6133 0-0.88672-0.72266-1.6133-1.6133-1.6133z" />
  <path d="m88.703 12.906c-0.88672 0-1.6133 0.72266-1.6133 1.6133 0 0.88672 0.72266 1.6133 1.6133 1.6133 0.88672 0 1.6133-0.72266 1.6133-1.6133 0-0.88672-0.72266-1.6133-1.6133-1.6133z" />
  <path d="m96.777 14.52c0 2.1523-3.2266 2.1523-3.2266 0 0-2.1484 3.2266-2.1484 3.2266 0" />
  <path d="m69.355 12.906c-0.88672 0-1.6133 0.72266-1.6133 1.6133 0 0.88672 0.72266 1.6133 1.6133 1.6133 0.88672 0 1.6133-0.72266 1.6133-1.6133 0-0.88672-0.72266-1.6133-1.6133-1.6133z" />
  <path d="m75.805 12.906c-0.88672 0-1.6133 0.72266-1.6133 1.6133 0 0.88672 0.72266 1.6133 1.6133 1.6133 0.88672 0 1.6133-0.72266 1.6133-1.6133 0-0.88672-0.72266-1.6133-1.6133-1.6133z" />
  <path d="m82.254 19.355c-0.88672 0-1.6133 0.72266-1.6133 1.6133 0 0.88672 0.72266 1.6133 1.6133 1.6133 0.88672 0 1.6133-0.72266 1.6133-1.6133 0-0.88672-0.72266-1.6133-1.6133-1.6133z" />
  <path d="m69.355 19.355c-0.88672 0-1.6133 0.72266-1.6133 1.6133 0 0.88672 0.72266 1.6133 1.6133 1.6133 0.88672 0 1.6133-0.72266 1.6133-1.6133 0-0.88672-0.72266-1.6133-1.6133-1.6133z" />
  <path d="m75.805 19.355c-0.88672 0-1.6133 0.72266-1.6133 1.6133 0 0.88672 0.72266 1.6133 1.6133 1.6133 0.88672 0 1.6133-0.72266 1.6133-1.6133 0-0.88672-0.72266-1.6133-1.6133-1.6133z" />
  <path d="m69.355 25.805c-0.88672 0-1.6133 0.72266-1.6133 1.6133 0 0.88672 0.72266 1.6133 1.6133 1.6133 0.88672 0 1.6133-0.72266 1.6133-1.6133 0-0.88672-0.72266-1.6133-1.6133-1.6133z" />
  <path d="m69.355 32.254c-0.88672 0-1.6133 0.72266-1.6133 1.6133 0 0.88672 0.72266 1.6133 1.6133 1.6133 0.88672 0 1.6133-0.72266 1.6133-1.6133 0-0.88672-0.72266-1.6133-1.6133-1.6133z" />
  <path d="m75.805 32.254c-0.88672 0-1.6133 0.72266-1.6133 1.6133 0 0.88672 0.72266 1.6133 1.6133 1.6133 0.88672 0 1.6133-0.72266 1.6133-1.6133 0-0.88672-0.72266-1.6133-1.6133-1.6133z" />
  <path d="m69.355 38.715c-0.88672 0-1.6133 0.72266-1.6133 1.6133 0 0.88672 0.72266 1.6133 1.6133 1.6133 0.88672 0 1.6133-0.72266 1.6133-1.6133 0-0.88672-0.72266-1.6133-1.6133-1.6133z" />
  <path d="m75.805 38.715c-0.88672 0-1.6133 0.72266-1.6133 1.6133 0 0.88672 0.72266 1.6133 1.6133 1.6133 0.88672 0 1.6133-0.72266 1.6133-1.6133 0-0.88672-0.72266-1.6133-1.6133-1.6133z" />
  <path d="m69.355 45.164c-0.88672 0-1.6133 0.72266-1.6133 1.6133 0 0.88672 0.72266 1.6133 1.6133 1.6133 0.88672 0 1.6133-0.72266 1.6133-1.6133 0-0.88672-0.72266-1.6133-1.6133-1.6133z" />
  <path d="m75.805 45.164c-0.88672 0-1.6133 0.72266-1.6133 1.6133 0 0.88672 0.72266 1.6133 1.6133 1.6133 0.88672 0 1.6133-0.72266 1.6133-1.6133 0-0.88672-0.72266-1.6133-1.6133-1.6133z" />
  <path d="m69.355 51.613c-0.88672 0-1.6133 0.72266-1.6133 1.6133 0 0.88672 0.72266 1.6133 1.6133 1.6133 0.88672 0 1.6133-0.72266 1.6133-1.6133 0-0.88672-0.72266-1.6133-1.6133-1.6133z" />
  <path d="m75.805 51.613c-0.88672 0-1.6133 0.72266-1.6133 1.6133 0 0.88672 0.72266 1.6133 1.6133 1.6133 0.88672 0 1.6133-0.72266 1.6133-1.6133 0-0.88672-0.72266-1.6133-1.6133-1.6133z" />
  <path d="m64.512 59.672c0 2.1523-3.2266 2.1523-3.2266 0 0-2.1484 3.2266-2.1484 3.2266 0" />
  <path d="m69.355 58.062c-0.88672 0-1.6133 0.72266-1.6133 1.6133 0 0.88672 0.72266 1.6133 1.6133 1.6133 0.88672 0 1.6133-0.72266 1.6133-1.6133 0-0.88672-0.72266-1.6133-1.6133-1.6133z" />
  <path d="m50 64.52c-0.88672 0-1.6133 0.72266-1.6133 1.6133 0 0.88672 0.72266 1.6133 1.6133 1.6133 0.88672 0 1.6133-0.72266 1.6133-1.6133 0-0.88672-0.72266-1.6133-1.6133-1.6133z" />
  <path d="m56.449 64.52c-0.88672 0-1.6133 0.72266-1.6133 1.6133 0 0.88672 0.72266 1.6133 1.6133 1.6133 0.88672 0 1.6133-0.72266 1.6133-1.6133 0-0.88672-0.72266-1.6133-1.6133-1.6133z" />
  <path d="m62.898 64.52c-0.88672 0-1.6133 0.72266-1.6133 1.6133 0 0.88672 0.72266 1.6133 1.6133 1.6133 0.88672 0 1.6133-0.72266 1.6133-1.6133 0-0.88672-0.72266-1.6133-1.6133-1.6133z" />
  <path d="m69.355 64.52c-0.88672 0-1.6133 0.72266-1.6133 1.6133 0 0.88672 0.72266 1.6133 1.6133 1.6133 0.88672 0 1.6133-0.72266 1.6133-1.6133 0-0.88672-0.72266-1.6133-1.6133-1.6133z" />
  <path d="m50 70.969c-0.88672 0-1.6133 0.72266-1.6133 1.6133 0 0.88672 0.72266 1.6133 1.6133 1.6133 0.88672 0 1.6133-0.72266 1.6133-1.6133 0-0.88672-0.72266-1.6133-1.6133-1.6133z" />
  <path d="m58.062 72.582c0 2.1484-3.2266 2.1484-3.2266 0 0-2.1484 3.2266-2.1484 3.2266 0" />
  <path d="m64.512 72.582c0 2.1484-3.2266 2.1484-3.2266 0 0-2.1484 3.2266-2.1484 3.2266 0" />
  <path d="m69.355 70.969c-0.88672 0-1.6133 0.72266-1.6133 1.6133 0 0.88672 0.72266 1.6133 1.6133 1.6133 0.88672 0 1.6133-0.72266 1.6133-1.6133 0-0.88672-0.72266-1.6133-1.6133-1.6133z" />
  <path d="m50 77.418c-0.88672 0-1.6133 0.72266-1.6133 1.6133 0 0.88672 0.72266 1.6133 1.6133 1.6133 0.88672 0 1.6133-0.72266 1.6133-1.6133 0-0.88672-0.72266-1.6133-1.6133-1.6133z" />
  <path d="m58.062 79.031c0 2.1484-3.2266 2.1484-3.2266 0s3.2266-2.1484 3.2266 0" />
  <path d="m64.512 79.031c0 2.1484-3.2266 2.1484-3.2266 0s3.2266-2.1484 3.2266 0" />
  <path d="m25.805 72.582c0 2.1484-3.2227 2.1484-3.2227 0 0-2.1484 3.2227-2.1484 3.2227 0" />
  <path d="m37.094 70.969c-0.88672 0-1.6133 0.72266-1.6133 1.6133 0 0.88672 0.72266 1.6133 1.6133 1.6133 0.88672 0 1.6133-0.72266 1.6133-1.6133 0-0.88672-0.72266-1.6133-1.6133-1.6133z" />
  <path d="m43.551 70.969c-0.88672 0-1.6133 0.72266-1.6133 1.6133 0 0.88672 0.72266 1.6133 1.6133 1.6133 0.88672 0 1.6133-0.72266 1.6133-1.6133 0-0.88672-0.72266-1.6133-1.6133-1.6133z" />
  <path d="m25.805 79.031c0 2.1484-3.2227 2.1484-3.2227 0s3.2227-2.1484 3.2227 0" />
  <path d="m30.645 77.418c-0.88672 0-1.6133 0.72266-1.6133 1.6133 0 0.88672 0.72266 1.6133 1.6133 1.6133 0.88672 0 1.6133-0.72266 1.6133-1.6133 0-0.88672-0.72266-1.6133-1.6133-1.6133z" />
  <path d="m37.094 77.418c-0.88672 0-1.6133 0.72266-1.6133 1.6133 0 0.88672 0.72266 1.6133 1.6133 1.6133 0.88672 0 1.6133-0.72266 1.6133-1.6133 0-0.88672-0.72266-1.6133-1.6133-1.6133z" />
  <path d="m43.551 77.418c-0.88672 0-1.6133 0.72266-1.6133 1.6133 0 0.88672 0.72266 1.6133 1.6133 1.6133 0.88672 0 1.6133-0.72266 1.6133-1.6133 0-0.88672-0.72266-1.6133-1.6133-1.6133z" />
  <path d="m30.645 83.867c-0.88672 0-1.6133 0.72266-1.6133 1.6133 0 0.88672 0.72266 1.6133 1.6133 1.6133 0.88672 0 1.6133-0.72266 1.6133-1.6133 0-0.88672-0.72266-1.6133-1.6133-1.6133z" />
  <path d="m43.551 83.867c-0.88672 0-1.6133 0.72266-1.6133 1.6133 0 0.88672 0.72266 1.6133 1.6133 1.6133 0.88672 0 1.6133-0.72266 1.6133-1.6133 0-0.88672-0.72266-1.6133-1.6133-1.6133z" />
  <path d="m11.285 83.867c-0.88672 0-1.6133 0.72266-1.6133 1.6133 0 0.88672 0.72266 1.6133 1.6133 1.6133 0.88672 0 1.6133-0.72266 1.6133-1.6133 0-0.88672-0.72266-1.6133-1.6133-1.6133z" />
  <path d="m25.805 91.938c0 2.1523-3.2227 2.1523-3.2227 0 0-2.1484 3.2227-2.1484 3.2227 0" />
  <path d="m4.8359 90.328c-0.88672 0-1.6133 0.72266-1.6133 1.6133 0 0.88672 0.72266 1.6133 1.6133 1.6133 0.88672 0 1.6133-0.72266 1.6133-1.6133 0-0.88672-0.72266-1.6133-1.6133-1.6133z" />
  <path d="m12.898 91.938c0 2.1523-3.2266 2.1523-3.2266 0 0-2.1484 3.2266-2.1484 3.2266 0" />
  <path d="m12.898 98.387c0 2.1523-3.2266 2.1523-3.2266 0 0-2.1484 3.2266-2.1484 3.2266 0" />
 </g>
</svg>