<?xml version='1.0' encoding='utf-8'?>
<svg xmlns="http://www.w3.org/2000/svg" version="1.1" x="0px" y="0px" viewBox="-5 -5 110 97" enable-background="new 0 0 100 100" xml:space="preserve"><g><path fill-rule="evenodd" clip-rule="evenodd" d="M5,49.6l0.8-0.5L7,48.9v-0.7l-0.4-0.3l0.6-1l1.4-0.5l0.6,1.2l1.1,0l-0.5,1.2   l0.8,1.6l1.9,0.4l1.2,0.6l0.9-0.2l0.6,0.2l1,0.2l0.4-0.4h0.8l0.4,0.8l0.8-0.1l0.7,0.2l0-1.2l0.5-0.5l0.7-0.2l0.5-1.1l1.5-0.8   l1.8,0.1l0.6,0l0.8-20.1l1.8,1.4l0.6,1.5l1.4,3.1l0,1.5l-0.8,1.8l0,1.1l1.5-0.2l1.5,0.3l0.9-0.4l1.3,0.2l0.9-0.6l1.2-0.3l1.1-0.8   l0.4-0.7l1.8-0.7l1-1.1l0.9-2.2l1.5-1.3l1.4-0.2l1.9,0.3l0.6,0.7l0.6,0l2,1.2l0.9-0.2l1,0.3l1.2-0.3h1.3l0.9-0.1l0.4,0.6l0.7,0.3   l1.2-0.8L56,32.2l0.3-1v-0.7l0.5-0.6l-0.1-1.5l0.5-0.9l1.2-0.2l0.8-0.5l0.8-0.1l0.3-0.5l0.4-0.3l0.3-0.7l0.8-0.6l0.6-0.2l0.4-0.5   l0.8-0.2l0-0.9l-0.3-0.4l0.2-1.4l1.5-2l0.8-0.4l0.6-0.2l0.4-0.5l0.8-0.3l0.2-0.5l0.7-0.4l0.6-0.6l1.2-1l1.1-0.2l0.4,0.2l0.5-0.1   l0.9,0l0.8-0.7l0.8-0.2l0.3-0.9L74.8,13l0.6-0.5l1,0l0.5-0.4l2.5-0.4l1.3,0.2l0.4,0.7l0.9-0.1l1.2,0.6l0.4,0.4l0.8-0.3l1.5-0.2   l1.9,0.4l1.1,0.9l0.3,1.5l0.3,1.4l0.7,1.4l0,2.6l-0.1,0.3l0,1.1l0.4,1.1l0.3,1.3l-0.1,4.3l-0.4,1.7l-0.1,1.6l0,1.9L89.2,34   l-0.9-0.8l-1.4-0.8l-1,0.5L85.7,34l-1.4,2.5l-0.5,1.3l0.3,0.7l0.6,0.6l0.6,1.2l1.8,1l2.1,0.1l0.9-0.3l0.3-1l-0.1-0.8l0.7-0.5   l0.9-0.2l1.9,0.5l1.1,0l0,0.3l-0.7,0.9l0.3,0.1l-0.7,2L93.8,44L93,45.7l-0.5,2.1l-0.8,1l-0.3,1l-1.5,1.8h-0.5L89.1,52l-1.1,0.5   l-0.5,0.6l-1.3,0.9l-0.7,1.3l-1.1,1.3v0.5l-0.6,1.2l-1,0L81.8,60l-2.3,3.9l-1.8,1.7l-0.3,1.5l-1,0.4l-1,1.2l-0.6,0l-0.3,0.4   l-5.8,5.7L68.1,75l0,0.3l-0.9,1l-3.8,2.4l-0.8,0.9l-1.3,0.4v0.4L59.1,81l-1.2,0.7l-1.2,0.1L56,81.4l-1.7,0.1l-1.4,0.4l-0.6,1   l0.8,0.7l-0.1,0.3l-1.9,0L50,83.4l-0.9-0.1l-0.8,0.8l0.3,0.7l-0.4,0.3l-2.7-0.6L44.9,84l-2.6-0.6l-1.7,0.3l0,0.4l-0.9,0.3l-1.3-0.7   l-3,0l-0.9,0.4L34.3,85l-0.6-0.3l-0.7,0.2l-0.6,0.5l-0.3,0.4l-1.3,0.1l-0.9,0.4l-1.6-0.6l-1.4,0.1l-0.3,0.4l-1.3-0.3l-1.2,1.4   l-1,0.2l-0.4,0.8l-0.6-0.2l-0.5,0.3L18.9,87l-0.6,0.3L18.3,86l-1-0.5l-0.8,0.4l-0.5-0.2l0.5-0.4l-0.3-1.2l-1.3-0.2l-0.9,0.8l0.1,1   l-0.7-0.5l-0.1-1.1l0.4-0.9l-0.3-1.4l0.8-1.2l-1-1.8l-1-0.9l-0.8-1.4V75l0.6-0.5l0.5,0.6h0.5l0.6-0.7l0.3-1.7l-0.6-1.9l0.1-0.8   l-1.6-2.6l0-1.2l-1.6-2l-0.7-3.2l-1.2-3.1l0-1.6l-1.2-3.4l-1.8-1.3L5,49.6L5,49.6L5,49.6z M64.3,60.4l0.8,0.7l0.6,0.8l1.3,0.5l1,0   l0.3-0.6l0.4-0.5l0.5-1.3l1-0.3l0.7-0.5l1-0.2l0.7,0.2l1-0.7l0.3-0.9l-0.4-0.4l-0.1-0.7l1-0.5l1-0.9L75,53.9l-0.9-2.1L73,50.8   l-0.9,0.2l-0.8-0.6L71,50.7l-0.5-0.4l-0.8,0l-0.2,0.4l-0.7,0.4l-0.5,0.5l-2,0.3L65,53.1l-0.5,1.4L63,55.7l-0.7,0.5l0.5,1.1l0.6,0.6   l0.1,0.6l0.7,0.8L64.3,60.4z" /></g><g display="none"><g display="inline"><path d="M50,5C25.2,5,5,25.2,5,50c0,24.8,20.2,45,45,45s45-20.2,45-45C95,25.2,74.8,5,50,5z M82.6,41.1l1.5,0.4l0.9,0l0,0.2    l-0.5,0.7l0.3,0.1L84.2,44l-0.1,1.3l-0.6,1.3L83,48.3L82.4,49l-0.2,0.8L81,51.2h-0.4l-0.3,0.4L79.5,52l-0.4,0.5l-1,0.7l-0.5,1    l-0.8,1v0.4l-0.5,0.9l-0.8,0l-0.7,1.3l-1.8,3l-1.4,1.3l-0.2,1.2l-0.8,0.3l-0.8,0.9l-0.4,0l-0.2,0.3l-4.5,4.4l-0.6,0.1l0,0.2    l-0.7,0.8l-3,1.9l-0.6,0.7l-1,0.3v0.3l-1.7,0.4l-0.9,0.6l-1,0.1l-0.5-0.4l-1.3,0l-1.1,0.3l-0.5,0.8l0.6,0.5l-0.1,0.2l-1.5,0L50,76    l-0.7-0.1l-0.6,0.6l0.3,0.5l-0.3,0.3l-2.1-0.4L46,76.4l-2-0.5l-1.3,0.3l0,0.3L42,76.8l-1-0.5l-2.3,0L38,76.5l-0.2,0.7L37.4,77    l-0.5,0.1l-0.5,0.4l-0.3,0.3l-1,0.1l-0.7,0.3l-1.3-0.5l-1.1,0.1l-0.2,0.3l-1-0.2L29.9,79l-0.8,0.1l-0.3,0.6l-0.5-0.2L28,79.8    l-2.1-1L25.4,79l0-1l-0.8-0.4l-0.6,0.3l-0.4-0.2l0.4-0.3l-0.2-0.9l-1-0.2L21.9,77l0,0.8l-0.6-0.4l0-0.9l0.3-0.7l-0.2-1.1l0.6-1    l-0.8-1.4l-0.8-0.7l-0.7-1.1v-1.1l0.5-0.4l0.4,0.4h0.4l0.5-0.6l0.3-1.3l-0.5-1.4l0.1-0.7l-1.2-2.1l0-0.9L19,60.9l-0.6-2.5L17.5,56    l0-1.2l-0.9-2.6l-1.4-1L15,49.7l0,0l0.6-0.4l0.9-0.2v-0.5l-0.3-0.2l0.4-0.8l1.1-0.4l0.5,0.9l0.8,0L18.7,49l0.6,1.3l1.5,0.3    l0.9,0.5l0.7-0.2l0.5,0.2l0.7,0.1l0.3-0.3h0.7l0.3,0.6l0.6-0.1l0.5,0.1l0-0.9l0.4-0.4l0.5-0.2l0.4-0.8l1.2-0.6l1.4,0.1l0.4,0    L31,33.1l1.4,1.1l0.4,1.2l1.1,2.4l0,1.2l-0.6,1.4l0,0.8l1.2-0.2l1.2,0.2l0.7-0.3l1,0.2l0.7-0.5l0.9-0.2l0.8-0.7l0.3-0.5l1.4-0.6    l0.8-0.8l0.7-1.7l1.2-1l1.1-0.1l1.5,0.2l0.4,0.6l0.5,0l1.6,0.9l0.7-0.1l0.7,0.2l0.9-0.2h1l0.7-0.1l0.3,0.4l0.5,0.2l1-0.6l-0.2-0.3    l0.2-0.8v-0.5l0.4-0.4l-0.1-1.2l0.4-0.7l0.9-0.2l0.6-0.4l0.6-0.1l0.3-0.4l0.3-0.2l0.2-0.6l0.6-0.5l0.5-0.1l0.3-0.4l0.6-0.1l0-0.7    l-0.2-0.3l0.1-1.1l1.2-1.6l0.6-0.3l0.4-0.1l0.3-0.4l0.6-0.2l0.2-0.4l0.5-0.3l0.4-0.4l0.9-0.8l0.9-0.2l0.3,0.2l0.4-0.1l0.7,0    l0.6-0.6l0.6-0.1l0.2-0.7l-0.1-0.4l0.5-0.4l0.7,0l0.4-0.3l2-0.3l1,0.2l0.3,0.6l0.7,0l0.9,0.4l0.3,0.3l0.6-0.2l1.2-0.2l1.4,0.3    l0.8,0.7l0.2,1.2l0.2,1.1l0.5,1.1l0,2l-0.1,0.2l0,0.8l0.3,0.8l0.3,1l0,3.4l-0.3,1.3l-0.1,1.2l0,1.5l-0.7-0.3L79.8,37l-1.1-0.6    L78,36.7l-0.2,0.8l-1.1,2l-0.4,1l0.2,0.5l0.5,0.4l0.5,0.9l1.4,0.8l1.7,0.1l0.7-0.2l0.2-0.7l-0.1-0.7l0.5-0.4L82.6,41.1z" /><polygon points="68.8,51.4 67.9,50.6 67.2,50.8 66.6,50.4 66.3,50.6 65.9,50.3 65.3,50.2 65.1,50.6 64.6,50.9 64.2,51.3     62.6,51.6 61.7,52.4 61.2,53.6 60.1,54.4 59.5,54.9 59.9,55.7 60.4,56.2 60.5,56.6 61,57.2 61.1,58.1 61.7,58.6 62.2,59.2     63.2,59.6 63.9,59.6 64.2,59.2 64.5,58.8 64.8,57.8 65.6,57.5 66.2,57.2 66.9,57 67.4,57.2 68.2,56.6 68.4,56 68.1,55.6 68,55.1     68.8,54.7 69.5,54.1 69.5,53   " /></g></g></svg>