<?xml version='1.0' encoding='utf-8'?>
<svg xmlns="http://www.w3.org/2000/svg" version="1.1" x="0px" y="0px" viewBox="-6.4 -6.7 97.2 103.5" enable-background="new 0 0 100 100" xml:space="preserve"><path fill-rule="evenodd" clip-rule="evenodd" d="M15.6,33.8l-0.5-1.5l0.9-2.1h-2.1l-2.2-1.5L11.4,25l-1.7-1.8l1-1.1l1.6-0.2  l0.4-2.3l-1.3-1.2l-0.2-1.7l0.6-0.7l1.6,0.6l2.7-2l1.8,0.8l2.5-4.4l1.6,1l-0.2,1.6l2.2,1.1l0.7,1.4l1.4-2.5v-1.9l3,0.8l1.2-0.1  l1.2,1l0.3-2.6l2.7-0.6l-0.7-2.2l1.4-1.7l2.3,1L41.5,5L43,5.4l2.4-0.2l-0.2,1.4l3.4,2l4.3,0.8l2.3-0.2l1,0.9l-1.6,2.3l0.5,1.1  L54.2,15l0.3,2.4L53,17l-1,0.5l-1,1h-1.5l-1.4,1.3L46.5,20L46,21.1l0.7,1.5l1,1.2l-1.1,1.6L46,25.9l0.8,1.8l0.2,2l0.7,1.1l3.1,1.6  l1.7,0.9l0.9,1.2l4.6,4.6l0.1,1.2l0.6,0.3l0.1,1.4l1,1.4l1.3,1.3l1,1.6l2.1,1.6l1,1l1.3,0.3l0.9,0.5l2.7,0l1.1,0.3l1.7-0.3l1.2,0.6  l-0.3,1l-1.8,1.2l-0.1,0.6l0.7,1.1h1.4l2.7,0.6l5.5,3l2.2,1.6l1.4,1.5l2.3,0.6l1.2,0.8l0.5,0.9l-0.2,1.8L88.8,66l0.2,1.1l-0.4,0.3  l-0.1,0.4l-1.2-0.5l-1-1.2l-0.6-1.3l0.2-1.1l-0.8-0.5l-2.2,0l-0.4-0.6l-1.4-0.7l-0.9,0.1l-0.6,0.4l-0.5,1.7L78.3,65l0.1,0.9L78.1,67  l-1,0.7l0,1l0.5,0.7l1.1,0.2l2,1.9l0.4,0.8L80.8,74l0.4,0.6l-0.5,1L79.5,76l-1.2,1.2l-0.2,3.2L76.2,82L76,83.5l-1,1.4L73,85  l-1.5-1.5l-0.1-1.1l0.3-0.5l0.9-0.5l0.8-1l0.2-1.3l-0.2-1.4l0.4-0.2l0.6,0l0.7-0.9l0.1-1.3l-0.8-1.2l-0.6-2.5l-0.7-1l-0.3-2.1  l-0.6-2.2l-1-0.6l-0.8,0.5l-1.8-0.4l-0.6-1.2l-1.4-0.1l-0.7-0.7l0.3-0.6l0.2-1.4l-0.9-1.2L64,60.6l-1.2,0.1l0.1-1l-1.2-0.4L61,59.5  L60.1,59l-1.5-2.8l-1.4-0.1l-1.4-0.6l-0.9,0.8h-1.3l-0.3-1.2l-1.2-0.8l-1.3-0.2l-2.8-2.1l-2.9-3.7l-0.9-0.3L44,47l-1.3-1.7l-2-0.1  L40.5,44l-1.9-1.8l-1.1-1.3l-1.6-0.8l0.1-2l-1.1-0.7l-0.1-1.2l-1.3-2.1L33,33l-0.4-0.8L32,31.2l-2.1-0.6l-1.4-0.9l-4.7-1.2l-3.6,2  l-0.1,1.2L19,33.2L15.6,33.8L15.6,33.8z M20.8,57.4l0.5-0.1l0.1-0.6l0.6-0.7l-0.6-0.5l-0.2,0.7l-0.4,0.2L20.8,57.4L20.8,57.4z   M38.6,46l0.8,0.4l-0.3-0.6L38.6,46L38.6,46z M33,42l-0.6,0.6l0.8,0.3l1.4-0.5l1.1,0.1l-0.2-0.8l-0.7-0.8l-0.3,0.5L33,42L33,42z   M24.4,76.3l0.5-0.3l0.7,0.3l1-0.4l0.1-1.6l0.4-1l1.3,0.1l0.8,0.8h0.8l0.5-1v-2.6l0.3-0.7l-0.3-2.8l0.5-2.5L29.3,63l1.5-1l0.2-1.1  l-0.4-1.6l-0.9-1l-1-1.9l-0.5,0.5L27,56L26,56.1l-2.5,3l-1.1,0.1l-1.6-1v1.5l-0.3,1l1.1,1.1l0.3,1.1l0.9,0.8v1.6l-1,1.1l0.4,0.8  l1.4,0.1V68l-0.8,1l-0.6,2.4l0.6,0.9l0.7,2.9L24.4,76.3L24.4,76.3z M68.8,94.8L68.7,93l0.7-0.9l-0.2-1.5L68,88.9l1.3-3.4l1.3-1.2  l0.3-1.9l-1.1-1.3L68,82.9l-0.7-0.1l-1.5-0.8l-1.5,1.6L61,83.3l-2.6,0.8l-1.9-0.4l-1.3-0.9L53.7,83l-0.9,0.7l-0.5-0.6l-1.7,0.8  l-0.2,2.3l1.5,1.4l1.5-0.3l2.7,1.8l1.4,0.4l1.3,1.4L62,92l0.6-0.4l1.4,1l0.3,1.1l3.2,1.3L68.8,94.8z" /></svg>