<?xml version='1.0' encoding='utf-8'?>
<svg xmlns="http://www.w3.org/2000/svg" version="1.1" x="0px" y="0px" viewBox="-6.5 -6.4 109.6 80.4" enable-background="new 0 0 100 100" xml:space="preserve"><g><path fill-rule="evenodd" clip-rule="evenodd" d="M29.6,60.7l0.3,0.2l0.2-0.1v-0.3l-0.5,0L29.6,60.7L29.6,60.7L29.6,60.7z    M21.1,98.1l0.5,0.4l0.6-0.1l0.4-0.7l-0.4-0.3l-0.4,0.6l-0.5,0L21.1,98.1L21.1,98.1z M17.1,86.9l1.4-1.4l0.3,0L18.8,86l-0.4,0.5   l0.3,0.5l-0.1,0.3l-0.6-0.3l-0.5,0.2L17.1,86.9L17.1,86.9z M67.2,21.2l0.4,0l0,0.3l-0.3,0L67.2,21.2L67.2,21.2z M68,18.7l-0.1-0.2   l0.2-0.1L68,18.7L68,18.7z M69,18.9l-0.3-0.4l0.3-0.8l0,0.5l0.2,0.3L69,18.5l0.1,0.3L69,18.9L69,18.9z M59.5,41.8l0.6,0.1l0.1-0.3   l0.3,0l0,0.4l-0.1,0.3l0.2,0.1l0.2-0.1l0.2,0.2l0,0.5l0.1,0.2l0.4-0.1l1.1-0.8l0.9-0.8l0.9-0.9l0.8-0.9l1-1.2l0.5-0.3l0.4,0   l0.2-0.3l0-0.5l0.2-0.3l0.6-0.2l0.4-1.1l0.6-0.9v-0.3l0.3-0.3L69,33.8l-0.5-0.1l-0.4,0.1l0.4-0.3l0.4-0.1l1.3-1.4l0.6-0.2l0.9,0.1   l0.5,0l-0.1,0.4l0.1,0.4l0.5-0.5l0.3-0.2l-0.7-0.3l0.1-0.6l0.4-0.9l0.3-0.4l0.5,0l0.1,0.2l0.3-0.3l0.3-0.5l0.8-1.2l0-0.4l0-0.4   l0.2-0.7l0.5-0.5l0.5-0.3l-0.1-0.1l-0.7-0.2l-0.3-0.3l0.2-0.1l0-0.2l-0.7-0.1l-0.6,0.4L73,26.4l-0.7,0.1L72,26.6l-0.5-0.2l-1.2-1.2   l-0.4,0.1l-0.4-0.6l-0.2-0.4l0.3-0.3l0.1-0.7l-0.4-0.9v-0.5l-0.2-0.3l0.1-0.6l0.1-0.4L69,20.5l-0.1-0.7l-0.1-0.4l-0.2,0.1l-0.5-0.3   l-0.1,0.2l0.4,0.4l0,0.6l0.1,0.2L68,21.2l0,0.4l0.4,0.5v0.3l-0.5,0.1l-0.3-0.4l-0.1-0.5l-0.6-0.1v-0.3l-0.5-0.2l-0.4,0.1l0-0.3   l0.4-0.3l0.2-0.4l-0.5-0.4l0.3-0.7l0.4-0.1l0.1-0.6l-0.2-0.4l0.1-0.3l-0.2-0.5l0-0.7l-0.6-0.4l0.1-0.3l0.4,0.2l0.5-0.1l0.1-0.6   l0.2-0.2v-0.8l-0.2-0.8l0.1-0.5l-0.3,0.1l-0.7,0.3L65.9,13l0.3-0.3l-0.3-0.3l-0.2,0l0.2-0.3l0.5-0.2l-0.1-0.3l-0.5-0.1l-0.4-0.3   L65,11.2l-0.1-0.5h0.2l0.2-0.3l-0.3,0l-0.3,0.2l0,0.3l-0.2,0.4l-0.4-0.2l0.2-0.5l-0.2-0.4l-0.1-0.7L64,9V8.8l0.2-0.1l-0.3-0.3   l-0.3,0.2l-0.8-0.1l0,0.2l0.4,0.4l0.6,1.5l0.1,0.5l-0.1,1l-0.2,0.2h-0.2l-0.1,0.2l0.3,1.2l0.2,0.2l0.4-0.3h0.6l-0.4,0.1l-0.4,0.5   l0.1,0.7l0.3,0.8l0.1,1.5l0,0.9l0,0.6l0.3-0.1l0.1-0.5l-0.1-0.4l0.2-0.2l0.2,0.3v0.5l0.3,0l0.1-0.2L65.5,18l0.2,0l0.1,0.4l-0.3,0.6   l-0.1,0.5l0,0.3L65,19.7l-0.2-0.3h-0.2l0.1,0.9l0.4,1.1l0.2,0.1l0.2-0.1l0.2,0.4l0.1,0.3l0.3,0.2l-0.6,0.4l0,0.2l0.2,0.2l-0.2,0.4   l-0.3,1l0,0.5L65,25.1l0.3,0.3l-0.1,0.2l-0.4,0l-0.3,0.5l0,0.3l0.3,0.3l-0.3,0.2l-0.4,0l-0.3,0.6l-0.4,2.1l-0.1,0.5l-0.4,0.3   l-0.4,0l-0.5-0.2l-0.5,0.1l-1.1,0.5L60,31.4l-0.2,0.7l0.1,0.9l0.5,0.4l0.8,0.5l0.4,0.8l0.8,0.3l0.3,0.3l0.1,1.3l0.1,0.1l-0.1,0.1   v0.7L62.6,38l-1.1,1.5l-0.8,0.9l-0.9,0.8l-0.3,0.4L59.5,41.8L59.5,41.8z M57.6,39.5l0-0.4l0.3-0.4l0.5,0.1L58.3,39l-0.4,0.2   l-0.3,0.4l-0.1,0L57.6,39.5L57.6,39.5z M57.4,40.3l0.2-0.3l0.3-0.1l-0.2,0.3L57.4,40.3L57.4,40.3z M57,40.2l0.3,0l0.3-0.1l0-0.2   L57,40.2L57,40.2z M33.1,67.2l0.3-0.2l-0.1,0.3L33.1,67.2L33.1,67.2z M30.3,68.3l-0.4,0.5l-0.3,0l-0.1-0.3l0.6-0.6l0.2-0.1v-0.4   l0.4-0.1l0.2-0.5l0-0.6l0.1-0.4l0.5-0.1l0.5,0.5l0.3,0.6l0.1,0.2l0,0.1l-0.3,0.1l-0.1-0.1l-0.3,0.1l0.2,0l0.2,0.2l0.3,0.1l0,0.2   l-0.2,0.2L31.9,68l-0.6,0.2l-0.3,0.2l-0.3,0l-0.2-0.1L30.3,68.3L30.3,68.3z M29.8,63.4L29.4,63l0.1-0.5l0.3-0.2l-0.3-0.1l-0.3-0.1   l0.7-0.8l0.6-0.1l0.5,0l0.2-0.2L31,60.9l-0.4-0.4l0-0.4l0.5-0.8l0.2-0.1l0.2-0.4l0.2,0.1l0.2,0.5l0.2-0.3l0.1-1l0.3-0.4h0.2   l0.9-0.9l0.3,0.2l0.3-0.3l0-0.7l0.3-0.2l0.4-0.3l0.3,0.2l0.1,0.4l0.1-0.7l0.5-0.6l0.5-0.1l0.7-0.6l0.3-0.4l0.9-0.8l0.4,0l0.3,0.2   l0.5-0.1l0.5-0.1l0.2,0.1l0.5,0.5l-0.1-0.6l-0.2-0.5l0.1-0.3l1-0.6l0.6-0.1l0.9-0.9l1.1-0.5l0.5,0l0.1-0.4l0.7-0.4l0.6-0.1l1.2-0.8   l1.1-1.2l0.1-0.5l0.3-0.4l0-0.6l0.5-0.5l0.3-0.2l0-0.6l0.2-0.5l0.5-0.3l0.6,0.1l0.5-0.2l0.2-0.4l0.7-0.8l0.3-0.1l0.5-0.7l0.5-1.3   l0.1-0.7l0.5-0.4l0.4-0.2l0.8-0.5l0.5,0.1L55,38.3L55,38.7l0.2,0.3l0.2,0.1l0.3-0.2l0.2,0.2l0,0.2l0.2,0.1l-0.1,0.3L55.7,40   l-0.2,0.2l0.3,0.8l0.4,0.2l0.4-0.5l0.4-0.2l0.4,0.1l0.3,0l-0.1,0.3l0.3,0.3l0.5-0.4l-0.2-0.1l-0.1-0.1l0.4-0.7l0.4,0.1l0,0.3h0.2   l-0.3,0.6l-0.6,0.4l0.4-0.1l0.4-0.1l-0.5,0.7l-0.2-0.1l-0.1,0.5l0,0.5l0.2,0.6l0.1,0.6l0.3,0.1l-0.5,0.3l-1.5,1.3l-0.1,0.3l-1,1.1   l0.1,0.2l-0.5,0l-0.6,0.6l-0.1,0.5l-0.7,0.8l-0.1,0.3L52.4,50l-0.8,0.3l-0.4,0.2L51,51.4l0.1,0.7l-0.2,0.3l0.4,0.1l0.3,0.4   l-0.1,0.8l-0.3,0.2L51,53.6l0.1-0.6l-0.2-0.1l-0.1,0.2l0,0.4l-0.2,0.3l-0.4-0.2l-0.6,0l0.5-0.2v-0.2L49.7,53l-0.4,0.3l0,0.3   l-0.4,0.1l-0.2-0.1L48.5,53L48,52.8l0.4,0.4l0,0.4l-0.4,0.5l-0.3,0.1l-0.5,0l-0.2,0.4h-0.3l-0.4-0.3l-0.1,0.5l-0.4,0.2l-0.5,0.6   l0,0.5L45,56.6l-0.6,0.9l-0.1,0.6L44,58.7l-1.3,0.9l-0.4,0.5l-0.2,0.9l-0.5,0.8l-0.6,0.7l0.1,0.1l-0.1,0.2l-0.3,0.2l0.5-0.1   l0.1,0.2l-0.3,0.2l-0.8,0l-0.9,0.4l-0.4,0.5l-0.2,0.6L38.2,65l0.1-0.4L38,64.4l0.1,0.5L38,65.1l-0.5,0.2l-0.8,0.7l-1,0.4l-0.7,0.1   l-0.5-0.1v-0.3l-0.8,0.4l-0.3-0.1l0.6-0.3l-0.4-0.3L33,65.4L33,64.8l-0.2-0.2l-0.5,0L32,64.3l0.2-0.2l-0.2-0.5l-0.4-0.2l-0.3,0   l-0.1,0.3l-0.2,0l-0.1-0.2l-0.7-0.1L29.8,63.4z" /></g><g display="none"><path display="inline" d="M50,5C25.2,5,5,25.2,5,50c0,24.8,20.2,45,45,45s45-20.2,45-45C95,25.2,74.8,5,50,5z" /><path display="inline" fill-rule="evenodd" clip-rule="evenodd" fill="#000000" d="M36.6,55.9l0.2,0.1l0.2,0v-0.3l-0.4,0L36.6,55.9   L36.6,55.9L36.6,55.9z M30,84.9l0.4,0.3l0.5,0l0.3-0.6l-0.3-0.3l-0.3,0.4l-0.4,0L30,84.9L30,84.9z M26.9,76.2l1.1-1.1l0.2,0   l-0.1,0.4l-0.3,0.4l0.2,0.4L28,76.6l-0.5-0.2l-0.4,0.2L26.9,76.2L26.9,76.2z M65.8,25.1l0.3,0l0,0.2l-0.2,0L65.8,25.1L65.8,25.1z    M66.5,23.2l-0.1-0.1l0.2-0.1L66.5,23.2L66.5,23.2z M67.2,23.4l-0.3-0.3l0.3-0.6l0,0.4l0.1,0.2l-0.1,0.1L67.2,23.4L67.2,23.4   L67.2,23.4z M59.9,41.1l0.5,0.1l0.1-0.3l0.2,0l0,0.3l0,0.2l0.1,0.1l0.2-0.1l0.1,0.2l0,0.4l0.1,0.1l0.3,0l0.8-0.6L63,41l0.7-0.7   l0.6-0.7l0.8-1l0.4-0.3l0.3,0l0.2-0.2l0-0.4l0.2-0.2l0.4-0.2l0.3-0.9l0.5-0.7v-0.2l0.2-0.2L67.2,35l-0.4-0.1l-0.3,0l0.3-0.3   l0.3-0.1l1-1.1l0.4-0.2l0.7,0.1l0.4,0l-0.1,0.3l0,0.3l0.4-0.4l0.3-0.1l-0.5-0.2l0.1-0.4l0.3-0.7l0.3-0.3l0.4,0l0.1,0.2l0.2-0.2   l0.2-0.4l0.6-0.9l0-0.3l0-0.3l0.2-0.5l0.4-0.4l0.4-0.2l-0.1-0.1l-0.5-0.2L72,28.3l0.2-0.1l0-0.1L71.7,28l-0.5,0.3l-0.8,0.9l-0.5,0   l-0.3,0.1l-0.4-0.2l-0.9-0.9l-0.3,0l-0.3-0.5l-0.1-0.3l0.2-0.2l0.1-0.5L67.4,26v-0.4l-0.1-0.2l0-0.4l0.1-0.3l-0.2,0l-0.1-0.5   L67,23.8L66.9,24l-0.4-0.2l-0.1,0.2l0.3,0.3l0,0.4l0.1,0.2l-0.3,0.3l0,0.3l0.3,0.4v0.3l-0.4,0.1L66.1,26l0-0.4l-0.5-0.1v-0.2   l-0.4-0.2l-0.3,0l0-0.2l0.3-0.2l0.1-0.3l-0.4-0.3l0.3-0.5l0.3-0.1l0.1-0.5l-0.1-0.3l0.1-0.2l-0.1-0.4l0-0.5l-0.5-0.3l0-0.2l0.3,0.2   l0.4-0.1l0.1-0.5l0.2-0.2v-0.6l-0.2-0.6l0.1-0.4L65.8,19l-0.5,0.2l-0.4-0.4l0.2-0.2l-0.2-0.2l-0.2,0l0.2-0.3l0.4-0.2l-0.1-0.2   l-0.4-0.1l-0.3-0.3l-0.3,0.1L64.1,17h0.2l0.1-0.3l-0.2,0l-0.2,0.2l0,0.2l-0.2,0.3l-0.3-0.1l0.1-0.4l-0.2-0.3l-0.1-0.6l0-0.4v-0.1   l0.1,0l-0.2-0.2L63,15.4l-0.6,0l0,0.1l0.3,0.3l0.5,1.2l0.1,0.4l-0.1,0.8L63,18.4h-0.2l-0.1,0.1l0.3,0.9l0.1,0.1l0.3-0.2h0.5   l-0.3,0.1l-0.3,0.4l0.1,0.5l0.3,0.6l0.1,1.1l0,0.7l0,0.5l0.2-0.1l0.1-0.4L64,22.5l0.1-0.1l0.2,0.3V23l0.2,0l0-0.2l-0.1-0.1l0.1,0   l0,0.3l-0.2,0.4l-0.1,0.4l0,0.2l-0.2,0L64,23.7h-0.2l0.1,0.7l0.3,0.9l0.2,0.1l0.2-0.1l0.2,0.3l0,0.2l0.2,0.2l-0.5,0.3l0,0.2   l0.2,0.2l-0.1,0.3l-0.3,0.8l0,0.4l-0.1,0.1l0.2,0.2l-0.1,0.2l-0.3,0L63.8,29l0,0.2l0.3,0.3l-0.3,0.1l-0.3,0l-0.2,0.5L63,31.7l0,0.4   l-0.3,0.2l-0.3,0l-0.4-0.1l-0.4,0.1l-0.9,0.4l-0.4,0.4l-0.1,0.5l0.1,0.7l0.4,0.3l0.6,0.4l0.3,0.6l0.6,0.2l0.2,0.2l0.1,1l0,0.1   l-0.1,0.1v0.5l-0.2,0.4l-0.9,1.1L60.7,40L60,40.6l-0.2,0.3L59.9,41.1L59.9,41.1z M58.4,39.4l0-0.3l0.3-0.3l0.4,0.1L58.9,39   l-0.3,0.2l-0.2,0.3l-0.1,0L58.4,39.4L58.4,39.4z M58.2,40l0.2-0.2l0.2-0.1L58.4,40L58.2,40L58.2,40z M57.9,39.9l0.2,0l0.2-0.1   l0-0.1L57.9,39.9L57.9,39.9z M39.3,60.9l0.3-0.2l0,0.2L39.3,60.9L39.3,60.9z M37.1,61.8l-0.3,0.4l-0.2,0L36.5,62l0.4-0.5l0.2-0.1   v-0.3l0.3-0.1l0.1-0.4l0-0.4l0.1-0.3l0.4-0.1l0.4,0.4l0.2,0.5l0.1,0.1l0,0.1l-0.3,0l-0.1-0.1L38.1,61l0.1,0l0.2,0.2l0.2,0.1l0,0.2   l-0.1,0.2l-0.2-0.1l-0.5,0.2l-0.2,0.2l-0.2,0l-0.1-0.1L37.1,61.8L37.1,61.8z M36.8,58l-0.3-0.3l0.1-0.4l0.2-0.1L36.6,57l-0.3,0   l0.5-0.6l0.5-0.1l0.4,0l0.2-0.1L37.7,56l-0.3-0.3l0-0.3l0.4-0.7l0.2-0.1l0.2-0.3l0.2,0.1l0.2,0.4l0.2-0.2l0-0.8l0.2-0.3H39l0.7-0.7   l0.2,0.1l0.2-0.2l0-0.5l0.3-0.2l0.3-0.3l0.2,0.2l0.1,0.3l0.1-0.5l0.4-0.5l0.4-0.1l0.5-0.4l0.3-0.3l0.7-0.6l0.3,0l0.2,0.2l0.4-0.1   l0.4-0.1l0.2,0.1l0.4,0.4L45,49.6l-0.2-0.4l0.1-0.3l0.8-0.5l0.4-0.1l0.7-0.7l0.8-0.4l0.4,0l0.1-0.3l0.6-0.3l0.5-0.1l0.9-0.7l0.8-1   l0-0.4l0.2-0.3l0-0.5l0.4-0.4l0.2-0.1l0-0.5l0.1-0.4l0.4-0.3l0.5,0l0.4-0.2l0.2-0.3l0.5-0.6l0.2-0.1l0.4-0.5l0.4-1l0.1-0.6l0.4-0.3   l0.3-0.1l0.6-0.4l0.4,0l-0.3,0.4l0,0.3l0.2,0.2l0.2,0.1l0.2-0.2l0.1,0.1l0,0.2l0.1,0l-0.1,0.2l-0.2,0.3l-0.2,0.1l0.2,0.6l0.3,0.1   l0.3-0.4l0.3-0.2l0.3,0.1l0.2,0l0,0.3l0.2,0.2l0.4-0.3l-0.2-0.1l-0.1-0.1l0.3-0.5l0.3,0.1l0,0.3h0.1L59,40.5l-0.5,0.3l0.3,0   l0.3-0.1l-0.4,0.6l-0.1,0l-0.1,0.4l0,0.4l0.2,0.4l0,0.4l0.2,0.1l-0.4,0.2l-1.2,1l-0.1,0.3l-0.8,0.8l0,0.2l-0.4,0l-0.5,0.5l-0.1,0.4   l-0.5,0.6L55,47.1l-0.7,0.4l-0.6,0.2l-0.3,0.1l-0.2,0.7l0,0.5l-0.1,0.2l0.3,0.1l0.2,0.3l-0.1,0.6l-0.2,0.2l-0.1-0.1l0-0.5l-0.1-0.1   l-0.1,0.1l0,0.3l-0.1,0.2l-0.3-0.1l-0.5,0l0.4-0.2V50l-0.3-0.1l-0.3,0.2l0,0.2l-0.3,0.1l-0.2,0l-0.2-0.5l-0.4-0.2l0.3,0.3l0,0.3   L51,50.7l-0.2,0.1l-0.4,0l-0.1,0.3H50l-0.3-0.2l-0.1,0.4l-0.3,0.2L48.8,52l0,0.4l-0.2,0.4l-0.4,0.7L48,53.9l-0.2,0.4l-1,0.7   l-0.3,0.4l-0.2,0.7L46,56.7l-0.5,0.6l0.1,0.1l-0.1,0.1l-0.2,0.1l0.4-0.1l0,0.1l-0.2,0.1l-0.6,0l-0.7,0.3L44,58.5L43.8,59l-0.5,0.2   l0.1-0.3l-0.3-0.2l0.1,0.4l0,0.2l-0.4,0.2l-0.6,0.6l-0.8,0.3l-0.6,0.1l-0.4-0.1v-0.2l-0.6,0.3l-0.2,0l0.4-0.3l-0.3-0.2l-0.4-0.4   l-0.1-0.4L39,58.9l-0.4,0l-0.2-0.2l0.1-0.2l-0.1-0.4L38.1,58l-0.2,0l-0.1,0.3l-0.2,0l-0.1-0.1l-0.6,0L36.8,58z" /></g></svg>