<svg xmlns="http://www.w3.org/2000/svg" version="1.1" viewBox="-5.0 -10.0 110.0 135.0">
 <g>
  <path d="m51.43 1.4297c0 1.9023-2.8594 1.9023-2.8594 0 0-1.9062 2.8594-1.9062 2.8594 0"/>
  <path d="m57.145 7.1445c0 1.9023-2.8594 1.9023-2.8594 0 0-1.9062 2.8594-1.9062 2.8594 0"/>
  <path d="m57.145 12.855c0 1.9062-2.8594 1.9062-2.8594 0 0-1.9023 2.8594-1.9023 2.8594 0"/>
  <path d="m62.855 12.855c0 1.9062-2.8555 1.9062-2.8555 0 0-1.9023 2.8555-1.9023 2.8555 0"/>
  <path d="m62.855 18.57c0 1.9062-2.8555 1.9062-2.8555 0 0-1.9023 2.8555-1.9023 2.8555 0"/>
  <path d="m68.57 18.57c0 1.9062-2.8555 1.9062-2.8555 0 0-1.9023 2.8555-1.9023 2.8555 0"/>
  <path d="m85.715 24.285c0 1.9062-2.8594 1.9062-2.8594 0 0-1.9023 2.8594-1.9023 2.8594 0"/>
  <path d="m62.855 24.285c0 1.9062-2.8555 1.9062-2.8555 0 0-1.9023 2.8555-1.9023 2.8555 0"/>
  <path d="m68.57 24.285c0 1.9062-2.8555 1.9062-2.8555 0 0-1.9023 2.8555-1.9023 2.8555 0"/>
  <path d="m80 30c0 1.9062-2.8555 1.9062-2.8555 0s2.8555-1.9062 2.8555 0"/>
  <path d="m85.715 30c0 1.9062-2.8594 1.9062-2.8594 0s2.8594-1.9062 2.8594 0"/>
  <path d="m62.855 30c0 1.9062-2.8555 1.9062-2.8555 0s2.8555-1.9062 2.8555 0"/>
  <path d="m68.57 30c0 1.9062-2.8555 1.9062-2.8555 0s2.8555-1.9062 2.8555 0"/>
  <path d="m74.285 30c0 1.9062-2.8555 1.9062-2.8555 0s2.8555-1.9062 2.8555 0"/>
  <path d="m80 35.715c0 1.9023-2.8555 1.9023-2.8555 0 0-1.9062 2.8555-1.9062 2.8555 0"/>
  <path d="m57.145 35.715c0 1.9023-2.8594 1.9023-2.8594 0 0-1.9062 2.8594-1.9062 2.8594 0"/>
  <path d="m62.855 35.715c0 1.9023-2.8555 1.9023-2.8555 0 0-1.9062 2.8555-1.9062 2.8555 0"/>
  <path d="m68.57 35.715c0 1.9023-2.8555 1.9023-2.8555 0 0-1.9062 2.8555-1.9062 2.8555 0"/>
  <path d="m74.285 35.715c0 1.9023-2.8555 1.9023-2.8555 0 0-1.9062 2.8555-1.9062 2.8555 0"/>
  <path d="m62.855 41.43c0 1.9023-2.8555 1.9023-2.8555 0 0-1.9062 2.8555-1.9062 2.8555 0"/>
  <path d="m68.57 41.43c0 1.9023-2.8555 1.9023-2.8555 0 0-1.9062 2.8555-1.9062 2.8555 0"/>
  <path d="m74.285 41.43c0 1.9023-2.8555 1.9023-2.8555 0 0-1.9062 2.8555-1.9062 2.8555 0"/>
  <path d="m51.43 47.145c0 1.9023-2.8594 1.9023-2.8594 0 0-1.9062 2.8594-1.9062 2.8594 0"/>
  <path d="m68.57 47.145c0 1.9023-2.8555 1.9023-2.8555 0 0-1.9062 2.8555-1.9062 2.8555 0"/>
  <path d="m74.285 47.145c0 1.9023-2.8555 1.9023-2.8555 0 0-1.9062 2.8555-1.9062 2.8555 0"/>
  <path d="m51.43 52.855c0 1.9062-2.8594 1.9062-2.8594 0 0-1.9023 2.8594-1.9023 2.8594 0"/>
  <path d="m57.145 52.855c0 1.9062-2.8594 1.9062-2.8594 0 0-1.9023 2.8594-1.9023 2.8594 0"/>
  <path d="m68.57 52.855c0 1.9062-2.8555 1.9062-2.8555 0 0-1.9023 2.8555-1.9023 2.8555 0"/>
  <path d="m51.43 58.57c0 1.9062-2.8594 1.9062-2.8594 0 0-1.9023 2.8594-1.9023 2.8594 0"/>
  <path d="m57.145 58.57c0 1.9062-2.8594 1.9062-2.8594 0 0-1.9023 2.8594-1.9023 2.8594 0"/>
  <path d="m51.43 64.285c0 1.9062-2.8594 1.9062-2.8594 0 0-1.9023 2.8594-1.9023 2.8594 0"/>
  <path d="m51.43 70c0 1.9062-2.8594 1.9062-2.8594 0s2.8594-1.9062 2.8594 0"/>
  <path d="m45.715 58.57c0 1.9062-2.8594 1.9062-2.8594 0 0-1.9023 2.8594-1.9023 2.8594 0"/>
  <path d="m45.715 64.285c0 1.9062-2.8594 1.9062-2.8594 0 0-1.9023 2.8594-1.9023 2.8594 0"/>
  <path d="m40 70c0 1.9062-2.8555 1.9062-2.8555 0s2.8555-1.9062 2.8555 0"/>
  <path d="m45.715 70c0 1.9062-2.8594 1.9062-2.8594 0s2.8594-1.9062 2.8594 0"/>
  <path d="m28.57 75.715c0 1.9023-2.8555 1.9023-2.8555 0 0-1.9062 2.8555-1.9062 2.8555 0"/>
  <path d="m34.285 75.715c0 1.9023-2.8555 1.9023-2.8555 0 0-1.9062 2.8555-1.9062 2.8555 0"/>
  <path d="m40 75.715c0 1.9023-2.8555 1.9023-2.8555 0 0-1.9062 2.8555-1.9062 2.8555 0"/>
  <path d="m45.715 75.715c0 1.9023-2.8594 1.9023-2.8594 0 0-1.9062 2.8594-1.9062 2.8594 0"/>
  <path d="m22.855 81.43c0 1.9023-2.8555 1.9023-2.8555 0 0-1.9062 2.8555-1.9062 2.8555 0"/>
  <path d="m28.57 81.43c0 1.9023-2.8555 1.9023-2.8555 0 0-1.9062 2.8555-1.9062 2.8555 0"/>
  <path d="m34.285 81.43c0 1.9023-2.8555 1.9023-2.8555 0 0-1.9062 2.8555-1.9062 2.8555 0"/>
  <path d="m40 81.43c0 1.9023-2.8555 1.9023-2.8555 0 0-1.9062 2.8555-1.9062 2.8555 0"/>
  <path d="m22.855 87.145c0 1.9023-2.8555 1.9023-2.8555 0 0-1.9062 2.8555-1.9062 2.8555 0"/>
  <path d="m28.57 87.145c0 1.9023-2.8555 1.9023-2.8555 0 0-1.9062 2.8555-1.9062 2.8555 0"/>
  <path d="m34.285 87.145c0 1.9023-2.8555 1.9023-2.8555 0 0-1.9062 2.8555-1.9062 2.8555 0"/>
  <path d="m40 87.145c0 1.9023-2.8555 1.9023-2.8555 0 0-1.9062 2.8555-1.9062 2.8555 0"/>
  <path d="m22.855 92.855c0 1.9062-2.8555 1.9062-2.8555 0 0-1.9023 2.8555-1.9023 2.8555 0"/>
  <path d="m28.57 92.855c0 1.9062-2.8555 1.9062-2.8555 0 0-1.9023 2.8555-1.9023 2.8555 0"/>
  <path d="m34.285 92.855c0 1.9062-2.8555 1.9062-2.8555 0 0-1.9023 2.8555-1.9023 2.8555 0"/>
  <path d="m28.57 98.57c0 1.9062-2.8555 1.9062-2.8555 0 0-1.9023 2.8555-1.9023 2.8555 0"/>
  <path d="m17.145 87.145c0 1.9023-2.8594 1.9023-2.8594 0 0-1.9062 2.8594-1.9062 2.8594 0"/>
  <path d="m17.145 92.855c0 1.9062-2.8594 1.9062-2.8594 0 0-1.9023 2.8594-1.9023 2.8594 0"/>
 </g>
<text x="0.0" y="117.5" font-size="5.0" font-weight="bold" font-family="Arbeit Regular, Helvetica, Arial-Unicode, Arial, Sans-serif" fill="#000000">Created by Carlos von Dessauer</text><text x="0.0" y="122.5" font-size="5.0" font-weight="bold" font-family="Arbeit Regular, Helvetica, Arial-Unicode, Arial, Sans-serif" fill="#000000">from Noun Project</text></svg>