<svg xmlns="http://www.w3.org/2000/svg" viewBox="0 0 98 77.95" x="0px" y="0px"><g><g><circle cx="96.52" cy="1.48" r="1.48"/><circle cx="96.52" cy="7.42" r="1.48"/><circle cx="54.94" cy="7.42" r="1.48"/><circle cx="90.58" cy="13.36" r="1.48"/><circle cx="96.52" cy="13.36" r="1.48"/><circle cx="54.94" cy="13.36" r="1.48"/><circle cx="60.88" cy="13.36" r="1.48"/><circle cx="66.82" cy="13.36" r="1.48"/><circle cx="72.76" cy="13.36" r="1.48"/><circle cx="84.64" cy="19.3" r="1.48"/><circle cx="90.58" cy="19.3" r="1.48"/><circle cx="54.94" cy="19.3" r="1.48"/><circle cx="60.88" cy="19.3" r="1.48"/><circle cx="66.82" cy="19.3" r="1.48"/><circle cx="72.76" cy="19.3" r="1.48"/><circle cx="84.64" cy="25.24" r="1.48"/><circle cx="90.58" cy="25.24" r="1.48"/><circle cx="54.94" cy="25.24" r="1.48"/><circle cx="60.88" cy="25.24" r="1.48"/><circle cx="66.82" cy="25.24" r="1.48"/><circle cx="72.76" cy="25.24" r="1.48"/><circle cx="78.7" cy="25.24" r="1.48"/><circle cx="84.64" cy="31.18" r="1.48"/><circle cx="90.58" cy="31.18" r="1.48"/><circle cx="54.94" cy="31.18" r="1.48"/><circle cx="60.88" cy="31.18" r="1.48"/><circle cx="66.82" cy="31.18" r="1.48"/><circle cx="72.76" cy="31.18" r="1.48"/><circle cx="78.7" cy="31.18" r="1.48"/><circle cx="7.42" cy="1.48" r="1.48"/><path d="M13.36,0c-.82,0-1.48,.66-1.48,1.48s.66,1.48,1.48,1.48,1.48-.66,1.48-1.48-.66-1.48-1.48-1.48Z"/><circle cx="25.24" cy="7.42" r="1.48"/><circle cx="31.18" cy="7.42" r="1.48"/><path d="M37.12,5.94c-.82,0-1.48,.66-1.48,1.48s.66,1.48,1.48,1.48,1.48-.66,1.48-1.48-.66-1.48-1.48-1.48Z"/><path d="M43.06,5.94c-.82,0-1.48,.66-1.48,1.48s.66,1.48,1.48,1.48,1.48-.66,1.48-1.48-.66-1.48-1.48-1.48Z"/><circle cx="49" cy="7.42" r="1.48"/><circle cx="7.42" cy="7.42" r="1.48"/><path d="M13.36,5.94c-.82,0-1.48,.66-1.48,1.48s.66,1.48,1.48,1.48,1.48-.66,1.48-1.48-.66-1.48-1.48-1.48Z"/><path d="M19.3,5.94c-.82,0-1.48,.66-1.48,1.48s.66,1.48,1.48,1.48,1.48-.66,1.48-1.48-.66-1.48-1.48-1.48Z"/><circle cx="25.24" cy="13.36" r="1.48"/><circle cx="31.18" cy="13.36" r="1.48"/><path d="M37.12,11.88c-.82,0-1.48,.66-1.48,1.48s.66,1.48,1.48,1.48,1.48-.67,1.48-1.48-.66-1.48-1.48-1.48Z"/><path d="M43.06,11.88c-.82,0-1.48,.66-1.48,1.48s.66,1.48,1.48,1.48,1.48-.67,1.48-1.48-.66-1.48-1.48-1.48Z"/><circle cx="49" cy="13.36" r="1.48"/><circle cx="1.48" cy="13.36" r="1.48"/><circle cx="7.42" cy="13.36" r="1.48"/><path d="M13.36,11.88c-.82,0-1.48,.66-1.48,1.48s.66,1.48,1.48,1.48,1.48-.67,1.48-1.48-.66-1.48-1.48-1.48Z"/><path d="M19.3,11.88c-.82,0-1.48,.66-1.48,1.48s.66,1.48,1.48,1.48,1.48-.67,1.48-1.48-.66-1.48-1.48-1.48Z"/><circle cx="25.24" cy="19.3" r="1.48"/><circle cx="31.18" cy="19.3" r="1.48"/><path d="M37.12,17.82c-.82,0-1.48,.66-1.48,1.48s.66,1.48,1.48,1.48,1.48-.66,1.48-1.48-.66-1.48-1.48-1.48Z"/><path d="M43.06,17.82c-.82,0-1.48,.66-1.48,1.48s.66,1.48,1.48,1.48,1.48-.66,1.48-1.48-.66-1.48-1.48-1.48Z"/><circle cx="49" cy="19.3" r="1.48"/><circle cx="1.48" cy="19.3" r="1.48"/><circle cx="7.42" cy="19.3" r="1.48"/><path d="M13.36,17.82c-.82,0-1.48,.66-1.48,1.48s.66,1.48,1.48,1.48,1.48-.66,1.48-1.48-.66-1.48-1.48-1.48Z"/><path d="M19.3,17.82c-.82,0-1.48,.66-1.48,1.48s.66,1.48,1.48,1.48,1.48-.66,1.48-1.48-.66-1.48-1.48-1.48Z"/><circle cx="25.24" cy="25.24" r="1.48"/><circle cx="31.18" cy="25.24" r="1.48"/><path d="M37.12,23.76c-.82,0-1.48,.66-1.48,1.48s.66,1.48,1.48,1.48,1.48-.66,1.48-1.48-.66-1.48-1.48-1.48Z"/><path d="M43.06,23.76c-.82,0-1.48,.66-1.48,1.48s.66,1.48,1.48,1.48,1.48-.66,1.48-1.48-.66-1.48-1.48-1.48Z"/><circle cx="49" cy="25.24" r="1.48"/><circle cx="1.48" cy="25.24" r="1.48"/><circle cx="7.42" cy="25.24" r="1.48"/><path d="M13.36,23.76c-.82,0-1.48,.66-1.48,1.48s.66,1.48,1.48,1.48,1.48-.66,1.48-1.48-.66-1.48-1.48-1.48Z"/><path d="M19.3,23.76c-.82,0-1.48,.66-1.48,1.48s.66,1.48,1.48,1.48,1.48-.66,1.48-1.48-.66-1.48-1.48-1.48Z"/><circle cx="25.24" cy="31.18" r="1.48"/><circle cx="31.18" cy="31.18" r="1.48"/><path d="M37.12,29.7c-.82,0-1.48,.66-1.48,1.48s.66,1.48,1.48,1.48,1.48-.66,1.48-1.48-.66-1.48-1.48-1.48Z"/><path d="M43.06,29.7c-.82,0-1.48,.66-1.48,1.48s.66,1.48,1.48,1.48,1.48-.66,1.48-1.48-.66-1.48-1.48-1.48Z"/><circle cx="49" cy="31.18" r="1.48"/><circle cx="1.48" cy="31.18" r="1.48"/><circle cx="7.42" cy="31.18" r="1.48"/><path d="M13.36,29.7c-.82,0-1.48,.66-1.48,1.48s.66,1.48,1.48,1.48,1.48-.66,1.48-1.48-.66-1.48-1.48-1.48Z"/><path d="M19.3,29.7c-.82,0-1.48,.66-1.48,1.48s.66,1.48,1.48,1.48,1.48-.66,1.48-1.48-.66-1.48-1.48-1.48Z"/><path d="M84.64,35.64c-.82,0-1.48,.66-1.48,1.48s.66,1.48,1.48,1.48,1.48-.66,1.48-1.48-.66-1.48-1.48-1.48Z"/><path d="M90.58,35.64c-.82,0-1.48,.66-1.48,1.48s.66,1.48,1.48,1.48,1.48-.66,1.48-1.48-.66-1.48-1.48-1.48Z"/><path d="M54.94,35.64c-.82,0-1.48,.66-1.48,1.48s.66,1.48,1.48,1.48,1.48-.66,1.48-1.48-.66-1.48-1.48-1.48Z"/><path d="M60.88,35.64c-.82,0-1.48,.66-1.48,1.48s.66,1.48,1.48,1.48,1.48-.66,1.48-1.48-.66-1.48-1.48-1.48Z"/><path d="M66.82,35.64c-.82,0-1.48,.66-1.48,1.48s.66,1.48,1.48,1.48,1.48-.66,1.48-1.48-.66-1.48-1.48-1.48Z"/><path d="M72.76,35.64c-.82,0-1.48,.66-1.48,1.48s.66,1.48,1.48,1.48,1.48-.66,1.48-1.48-.66-1.48-1.48-1.48Z"/><path d="M78.7,35.64c-.82,0-1.48,.66-1.48,1.48s.66,1.48,1.48,1.48,1.48-.66,1.48-1.48-.66-1.48-1.48-1.48Z"/><circle cx="84.64" cy="43.06" r="1.48"/><circle cx="54.94" cy="43.06" r="1.48"/><circle cx="60.88" cy="43.06" r="1.48"/><circle cx="66.82" cy="43.06" r="1.48"/><circle cx="72.76" cy="43.06" r="1.48"/><circle cx="78.7" cy="43.06" r="1.48"/><circle cx="84.64" cy="49" r="1.48"/><circle cx="54.94" cy="49" r="1.48"/><circle cx="60.88" cy="49" r="1.48"/><circle cx="66.82" cy="49" r="1.48"/><circle cx="72.76" cy="49" r="1.48"/><circle cx="78.7" cy="49" r="1.48"/><circle cx="84.64" cy="54.94" r="1.48"/><circle cx="90.58" cy="54.94" r="1.48"/><circle cx="54.94" cy="54.94" r="1.48"/><circle cx="66.82" cy="54.94" r="1.48"/><circle cx="90.58" cy="60.88" r="1.48"/><path d="M25.24,35.64c-.82,0-1.48,.66-1.48,1.48s.66,1.48,1.48,1.48,1.48-.66,1.48-1.48-.66-1.48-1.48-1.48Z"/><path d="M31.18,35.64c-.82,0-1.48,.66-1.48,1.48s.66,1.48,1.48,1.48,1.48-.66,1.48-1.48-.66-1.48-1.48-1.48Z"/><path d="M37.12,35.64c-.82,0-1.48,.66-1.48,1.48s.66,1.48,1.48,1.48,1.48-.66,1.48-1.48-.66-1.48-1.48-1.48Z"/><path d="M43.06,35.64c-.82,0-1.48,.66-1.48,1.48s.66,1.48,1.48,1.48,1.48-.66,1.48-1.48-.66-1.48-1.48-1.48Z"/><path d="M49,35.64c-.82,0-1.48,.66-1.48,1.48s.66,1.48,1.48,1.48,1.48-.66,1.48-1.48-.66-1.48-1.48-1.48Z"/><path d="M7.42,35.64c-.82,0-1.48,.66-1.48,1.48s.66,1.48,1.48,1.48,1.48-.66,1.48-1.48-.66-1.48-1.48-1.48Z"/><path d="M13.36,35.64c-.82,0-1.48,.66-1.48,1.48s.66,1.48,1.48,1.48,1.48-.66,1.48-1.48-.66-1.48-1.48-1.48Z"/><path d="M19.3,35.64c-.82,0-1.48,.66-1.48,1.48s.66,1.48,1.48,1.48,1.48-.66,1.48-1.48-.66-1.48-1.48-1.48Z"/><circle cx="25.24" cy="43.06" r="1.48"/><circle cx="31.18" cy="43.06" r="1.48"/><path d="M37.12,41.58c-.82,0-1.48,.66-1.48,1.48s.66,1.48,1.48,1.48,1.48-.66,1.48-1.48-.66-1.48-1.48-1.48Z"/><path d="M43.06,41.58c-.82,0-1.48,.66-1.48,1.48s.66,1.48,1.48,1.48,1.48-.66,1.48-1.48-.66-1.48-1.48-1.48Z"/><circle cx="49" cy="43.06" r="1.48"/><path d="M13.36,41.58c-.82,0-1.48,.66-1.48,1.48s.66,1.48,1.48,1.48,1.48-.66,1.48-1.48-.66-1.48-1.48-1.48Z"/><path d="M19.3,41.58c-.82,0-1.48,.66-1.48,1.48s.66,1.48,1.48,1.48,1.48-.66,1.48-1.48-.66-1.48-1.48-1.48Z"/><circle cx="25.24" cy="49" r="1.48"/><circle cx="31.18" cy="49" r="1.48"/><path d="M37.12,47.52c-.82,0-1.48,.66-1.48,1.48s.66,1.48,1.48,1.48,1.48-.66,1.48-1.48-.66-1.48-1.48-1.48Z"/><path d="M43.06,47.52c-.82,0-1.48,.66-1.48,1.48s.66,1.48,1.48,1.48,1.48-.66,1.48-1.48-.66-1.48-1.48-1.48Z"/><circle cx="49" cy="49" r="1.48"/><path d="M19.3,47.52c-.82,0-1.48,.66-1.48,1.48s.66,1.48,1.48,1.48,1.48-.66,1.48-1.48-.66-1.48-1.48-1.48Z"/><path d="M37.12,53.45c-.82,0-1.48,.66-1.48,1.48s.66,1.48,1.48,1.48,1.48-.66,1.48-1.48-.66-1.48-1.48-1.48Z"/><path d="M43.06,53.45c-.82,0-1.48,.66-1.48,1.48s.66,1.48,1.48,1.48,1.48-.66,1.48-1.48-.66-1.48-1.48-1.48Z"/><circle cx="49" cy="54.94" r="1.48"/><circle cx="49" cy="60.88" r="1.48"/></g></g><text x="0" y="77.36" fill="#000000" font-size="5px" font-weight="bold" font-family="'Helvetica Neue', Helvetica, Arial-Unicode, Arial, Sans-serif">Created by Carlos von Dessauer</text><text x="0" y="82.36" fill="#000000" font-size="5px" font-weight="bold" font-family="'Helvetica Neue', Helvetica, Arial-Unicode, Arial, Sans-serif">from the Noun Project</text></svg>