<svg xmlns="http://www.w3.org/2000/svg" xmlns:xlink="http://www.w3.org/1999/xlink" version="1.1" x="0px" y="0px" viewBox="0 0 100 125" enable-background="new 0 0 100 100" xml:space="preserve"><g><path fill-rule="evenodd" clip-rule="evenodd" d="M37.1,48l0.3,0.3l-0.2,0.1L37,48.3L37.1,48L37.1,48z M37.6,48l-0.2-0.2l0.2-0.4   l0.4,0l0.1,0.5L37.9,48L37.6,48L37.6,48z M19.1,94.6l-0.2-0.4l-0.3,0l-0.1,0.5h0.4L19.1,94.6L19.1,94.6z M19.4,94.1l0.3-0.3L20,94   l-0.2,0.5l-0.3-0.1L19.4,94.1L19.4,94.1z M22.2,92l-0.1,0.6l0.2,0.2l0.4,0l0.1-0.6L22.2,92L22.2,92z M28.7,86.8L28.4,86l0.6-0.4   l0.1-0.3l-0.1-0.2l0.5-0.3l0.3-0.6l0.3,0.6l-0.3,0.4l0,0.5L29,86.2l0,0.5L28.7,86.8L28.7,86.8z M31.4,80.8l0.4,0.3l0.1,0.5   l-0.2,0.1l-0.4-0.4l0-0.4L31.4,80.8L31.4,80.8z M32.6,79.8l-0.2-0.2l-0.5,0l-0.2-0.1l0.2-0.4l0.5-0.2l0.2,0l0.1-0.2l0.3,0l0.2-0.1   l0.4-0.1l-0.3,0.6l-0.5,0.4l0,0.4L32.6,79.8L32.6,79.8z M47.9,20.9l-0.2-0.3l-0.1-0.4l0.5-0.4l0.3-0.1l-0.1,0.5l0,0.5L47.9,20.9   L47.9,20.9z M51.5,23.8L51,23.5L50.8,23l0.2-0.1l-0.2-1.1l-0.4-1L50,20.4l-0.5-0.3l-0.4,0L49,19.7l0.1-0.8l-0.1-0.6l0.2-0.5   l0.3-0.2l0.1-0.3l0.4-0.1l0.3-0.6l0.2-0.3l-0.1-0.3l-0.6-0.4l-0.2,0l-0.2-0.2l0.2-0.4l0.4-0.1l0.9,0.5l1,0.2l0.3-0.3l0-0.4l0.2-0.2   l-0.2-0.4l-0.3-0.1L52,13.8l-0.3-0.5l-0.2-0.5l0.4-0.5l0.2,0l0.1-0.2L52,11.3l-0.3-0.9l0.1-0.4l-0.1-1.1l-0.2-0.7l-1-1.6l-0.2-0.7   l-0.3-0.4l0.1-0.2h0.3L50.8,5l-0.1-0.3h0.7l0.2,0.4l1,0.8l0.8,0.2L53.8,7l1.3,1.3l0.7,0.5l0.2,0.4l0.6,0.1l0.5,0.6l0.9,0.4l0.7,0.1   l0.6,0.6l0.4-0.1l0.2,0.1l0.7-0.1l1-0.7l0.5-0.6l0.1-0.5L62.5,9l0.2,0.2v0.5l-0.3,0.9l0,0.8l0.2,0.3l0.7,0.4l0.5,0.6l0,0.4   l-0.1,0.3h0.4l0.3-0.4l0.4-0.4l0.4,0L65,13l-0.3,0.2l0,0.6L64.3,14l-0.5,0.2l-0.1,0.4L63.5,15l-0.4,0l-0.2-0.2l-0.4,0.3l0,0.3h-0.7   l-0.6-0.1l-0.5,0.1l-0.8,1.1l-0.3,1.2l-0.1,1l0.2,0.7l-0.1,0.5l0,0.4l-0.5-0.2l-0.3-0.4l-0.9-0.2L57,19.1l-0.8-0.7l-0.5-0.6   l-0.5,0.1l-0.5-0.1l-0.2-0.2l-0.6,0L53.2,18l-0.7,1l-0.3-0.2l-0.7-0.5l-0.4,0l-0.4,0.3v0.6l0.2,0.5l0.6,0.3l0.6-0.2l0.7,0.8   l0.6,0.2h0.7l0.2,0.3L54,21.8l-0.1,0.4l-0.4-0.3l-0.8,0l-0.3,0.2l0.1,0.4L52.2,23L51.5,23.8L51.5,23.8z M50.5,40.2l0-0.6l0.2-0.3   l-0.1-0.1l-0.4,0.2l-0.1-0.4l0.3-1l0.2-0.2l0.1,0.4l0,0.4l0.4,0.1l0.1,0.3l-0.1,0.7l-0.3,0.3L50.5,40.2L50.5,40.2z M28.7,60.3   l0.3,0.2l0.2-0.1l-0.4-0.2l-0.2,0L28.7,60.3L28.7,60.3z M28.6,60.7l0.1,0.2l0.1-0.1L28.6,60.7L28.6,60.7z M28.2,61l0.2,0.1l0.1-0.2   L28.2,61L28.2,61z M27.8,61.3l0.1,0.3l0.3-0.2L27.8,61.3L27.8,61.3z M27.4,62.8l-0.2-0.6l0-0.4l0.3-0.2l0,0.4l0.3,0.2l0.2,0.4   l-0.3,0.3L27.4,62.8L27.4,62.8z M31.9,63.1l0-0.3l0.2-0.2l0.2,0.1l-0.1,0.4L31.9,63.1L31.9,63.1z M31.4,64.1l0.2-0.3l0.2,0.1   l-0.2,0.4L31.4,64.1L31.4,64.1z M31.2,62.5L31,62.8l0.1,0.6l0.2,0.4l0.3,0l0.1-0.5l-0.3-0.6l0-0.2L31.2,62.5L31.2,62.5z M43.9,55.4   l-0.3-0.6l0-0.5l0.2-0.3l0.3-0.1l0.1,0.4l-0.1,0.4l0.1,0.2l-0.1,0.4L43.9,55.4L43.9,55.4z M41.8,54.9l0.5-0.4l0.4,0.1l0,0.3   L42.3,55L41.8,54.9L41.8,54.9z M39.1,61.1l0.2,0.1l0.2-0.2l0.4,0.1l0.3-0.1l0-0.4l-0.5-0.6l0.3-0.5l0.3-0.9l0.7-0.4L41,58l0.7,0.1   l0.8,0.5l0.2,0.4l0.4-0.2l0.3-1l0.7-0.6l0.1-0.4l-0.2-0.2l-0.1-0.4l-0.6-0.5l-0.4,0l-0.4-0.3l-0.8,0l-0.7,0.6v0.4l-0.3,0.4L40,56.8   l-0.4,0.3l-0.3-0.1l-0.3-0.8l-0.3,0l-0.8,0.9l0,0.5l-0.5,0.4l-0.1,0.6l0.8,0.2l0.1,0.6L38,59.6v0.3l0.5,0.7l0.7,0.1L39.1,61.1   L39.1,61.1z M35.3,71.1l-0.4-0.4l-0.4,0.1l-0.1,0.4l0.3,0.6l0.5,0.1l0.1-0.3L35.3,71.1L35.3,71.1z M35.8,70.5l-0.1-1l0-0.4l0.3,0.3   l0.1,0.5l-0.1,0.4L35.8,70.5L35.8,70.5z M34.7,68.8l0.5-0.3l0.6-0.8l-0.5-0.5l0-0.3l0.3-0.1l0.4,0.1l0.3,0.2l0.1-0.6l0-0.9L36.2,65   l0-1.7l-0.1-0.9l0.3-0.5l0.6-0.6l-0.1-0.4l-0.3-0.1l0-0.6l-0.3-0.1l0.1-0.4l-1,0l-0.1-0.2l0.5-0.3l0.2-0.4l-0.1-0.8l-0.4-0.2   L34.9,58v0.2l-0.4,0.3l-0.4-0.1l-0.7-0.7l0.1-0.4l0.9-0.5l0.8-0.1l0.9,0.3l0.4,0.2l0.1-0.2l0-0.4l0-0.6l-0.1-0.4l0.2-0.3l0.4,0   l0.2,0.4l0.4,0l0.5-0.3l1-0.2l0.9-0.3l0.6,0l0.2,0.1l0.3-0.1l0-0.2l0.6-0.3l0.1-0.3l0.7-0.6l0.7-0.2l0.9,0.2l0.5-0.1l0.2,0.2v0.5   l-0.4,0.6l-0.1,0.5l0.3,0.2l0.1,0.5l0,0.6l-0.1,0.2L45,57l0.6,0.3l0.8,0.8l0.6,0.2l0.4-0.2l0.6-0.9l0.1-0.6l0.3-0.2l0.1-0.3   l-0.1-0.4l0.4-0.7l0.5-0.1h0.5l0.2-0.3l-0.1-0.2l-0.1-0.6l-1.1-0.5L48.4,53l0.2-0.8l0.3-0.3l0.2-0.1L49,52.1l0.1,0.6l0.2,0.2   l0.3-0.2l0.1-0.2l0.4,0.1l0.3,0.2l0.3-0.1l0.2,0.1L50.8,53l-0.5,0.1l-0.1,0.2l0.2,0.1l0.4-0.1l0.7-0.4l1.5,0.1l0.8-0.1l-0.2-0.2   l-0.1-0.6l0.1-0.7l0.6-0.3l0.5,0.1l0.1,0.6l-0.2,0.6l0.2,0.4l0.4,0l0.4-0.6l-0.3-1l0.2-0.6l0.7-0.6l0.4,0l0.1-0.3l-0.3-0.3l0.1-0.7   l0.4-0.2l0.6,0.1l0.1,0.3l-0.3,0.4L57.4,50l0.2,1.7l0.3,0.1l0.4-0.3l0.3-0.6l0.5,0l0.6-0.6l0.2-0.8l-0.1-0.5l0.6-0.6l-0.1-0.4   l-0.3-0.3l-0.7-0.9l-0.2-0.7l-0.2-1.4l0.2-1.7l0-1.1l-0.5-2.1l-0.7-1l-0.1-0.8l0.2-1l0.9-0.4h0.4l0.2,0.4l0.2-0.2l-0.1-0.7   l-0.1-0.4l-0.2-0.2L59.1,35l0-0.3l0-0.4l0.2-0.4l0-0.2l0.1-0.5L59.2,33l0-0.7l0.1-0.4L59,31.5l-0.2-1.2l-0.5-0.9H58l-0.3-0.2   L57.6,28l-0.6-0.5l-1.2-1.4l-0.3-0.6l-0.2-0.9l-0.1-0.9l0-0.3L55,23.6l-0.3,0l-0.1-0.2L54,23.2l-0.3,0l0,0.2l-0.3,0.7l0,0.5   l0.3,0.2l0.3-0.1l0.7-0.6l0.3,0.7l-0.2,0.5l-0.4,0.2L54,25.3h-0.1l0.2,0.7l-0.3,0.3l-0.4-0.2l-0.1-0.5L53.2,25L53,24.7l-0.4,0.1   l-0.3-0.2l-0.1,0.5l0.2,0.9l0,0.6l-0.4,0.1l-0.4,0.5l0,0.3l0.7,0.7l0.2,0.4l-0.3,0.8l-0.4,0.3l-0.5-0.1l-0.1,0.3l0.4,0.5l0.4-0.1   l0.4-0.4l0.6,1.3l0.2,1.4l-0.1,0.8l0.1,1.4L53,37.1l0.1,0.8l-0.2,0.9l-0.7,0.4L51.9,40l0,1l-0.4,0.6l-0.1,0.6l-0.7,0.7l-1.4,0.8   l-0.6,0.2l-0.3,0.6L47.8,44l-0.7-0.9l0-0.4l0.3-0.2l0.3-0.5l-0.1-0.3l0.4-0.4l0-0.1l-0.7,0.2l-0.5,0.5l-0.6,0.2l-0.1,0.6l0.4,0.7   l0.1,1.4l-0.1,0.7l-0.7,0.7l0,0.4l-0.2,0.3l-0.1,1l0.3,0.3l0,0.4l-0.2,0.2l0.1,0.2l-0.1,0.4l-0.3,0l0.2,0.3L45,49.8l-0.3-0.2   l-0.4,0.3L44,49.8l-0.1-0.6l-0.2-0.1l-0.4,0.3l-0.4,0l-0.2-0.1l-1.3,0.4L40.8,50l-0.7,0.2l-0.8,0.1l-0.7,0.2l-0.3-0.2l-0.6,0.1   l-1.1,0.8l-0.2,0.7l-0.4,0.3L36,52.6l-0.8,0.9l-0.5,0.2l-0.4,0.6l-0.1,0.4l-0.4,0.5l-0.8,0.2l-0.3,0.4l0.2,0.9l0.3,0.2l0.1,0.3   L33,57.4l-0.5,0l-0.6,0.5l-0.2,0.3l-0.4,0.3l-0.6,0.6l-0.2,0.5l-0.5,0L29.6,60h0.3l0.3,0l0.2,0.5l0.3,0.7l-0.2,0.2l-0.1-0.5   L30,60.6l-0.1,0.5l0.1,0.5l0.4,0.2l0.1,0.3l-0.2,0.4l0.3-0.2l0.2-0.4l0.4-0.1l0.3,0.1l-0.2,0.2l0.2,0.2l0.5-0.1l-0.1-0.5l-0.3-0.3   l-0.5,0.1l0-0.2l0.1-0.3l-0.1-0.4l0.2-0.3l0.5,0.2l0.5,0.9l0.1,0.7l0.2,0.3l0,1l-0.4,0.9l-0.5,0.1l0.1,0.3l0.4,0.8l0.2,1l0.5,0.6   l0,0.5l-0.2,0.3l0.4,0.5l0.5-0.1l0.4,0.2l0.2-0.2v-0.3l-0.4-0.7v-1l0.3-0.3l0.3,0.2l-0.2,0.3l0,0.3l0.4,0.5l0.2,0.8l-0.1,0.5   L34.7,68.8z"/></g><g display="none"><path display="inline" d="M50,5C25.2,5,5,25.2,5,50c0,24.8,20.2,45,45,45s45-20.2,45-45C95,25.2,74.8,5,50,5z"/><path display="inline" fill-rule="evenodd" clip-rule="evenodd" fill="#000000" d="M46.3,48.4l0.2,0.2l-0.2,0.1l-0.1-0.1L46.3,48.4   L46.3,48.4z M46.7,48.4l-0.1-0.2l0.2-0.3l0.3,0l0.1,0.4L47,48.4L46.7,48.4L46.7,48.4z M32.3,84.6l-0.1-0.3l-0.3,0l-0.1,0.4h0.3   L32.3,84.6L32.3,84.6z M32.6,84.2l0.2-0.3l0.2,0.2l-0.1,0.4l-0.2-0.1L32.6,84.2L32.6,84.2z M34.7,82.6l-0.1,0.5l0.2,0.2l0.3,0   l0.1-0.4L34.7,82.6L34.7,82.6z M39.8,78.6L39.6,78l0.4-0.3l0.1-0.2L40,77.3l0.4-0.2l0.2-0.5l0.2,0.5l-0.2,0.3l0,0.4L40,78.1l0,0.4   L39.8,78.6L39.8,78.6z M41.9,73.9l0.3,0.2l0.1,0.4l-0.1,0.1l-0.3-0.3l0-0.3L41.9,73.9L41.9,73.9z M42.8,73.1l-0.2-0.1l-0.4,0   l-0.1-0.1l0.2-0.3l0.4-0.2l0.1,0l0.1-0.1l0.3,0l0.1-0.1l0.3-0.1l-0.3,0.5l-0.4,0.3l0,0.3L42.8,73.1L42.8,73.1z M54.7,27.3l-0.2-0.2   l0-0.3l0.4-0.3l0.2-0.1L55,26.7l0,0.4L54.7,27.3L54.7,27.3z M57.5,29.6l-0.4-0.2L57,29l0.1-0.1L57,28l-0.3-0.8l-0.3-0.3l-0.4-0.3   l-0.3,0l-0.1-0.3l0-0.6l-0.1-0.5l0.2-0.4l0.3-0.2l0.1-0.2l0.3-0.1l0.2-0.5l0.2-0.2l-0.1-0.2l-0.5-0.3l-0.2,0L55.9,23l0.2-0.3   l0.3-0.1l0.7,0.4l0.8,0.1l0.3-0.2l0-0.3l0.1-0.1l-0.1-0.3L58,22l-0.1-0.2l-0.3-0.4l-0.1-0.4l0.3-0.4l0.2,0l0-0.2l-0.2-0.4l-0.2-0.7   l0.1-0.3L57.7,18l-0.2-0.5l-0.8-1.2l-0.1-0.5l-0.2-0.3l0.1-0.1h0.2L57,15l-0.1-0.2h0.5l0.2,0.3l0.7,0.6l0.6,0.1l0.3,0.6l1,1   l0.6,0.4l0.2,0.3l0.4,0.1l0.4,0.4l0.7,0.3l0.6,0.1l0.4,0.4l0.3-0.1l0.2,0.1l0.6-0.1l0.7-0.5l0.4-0.5l0.1-0.4l0.1-0.1l0.1,0.2v0.4   l-0.2,0.7l0,0.6l0.2,0.2l0.6,0.3L67,21l0,0.3l0,0.2h0.3l0.2-0.3l0.3-0.3l0.3,0L68,21.2l-0.2,0.1l0,0.4L67.5,22l-0.4,0.2L67,22.5   l-0.2,0.2l-0.3,0l-0.2-0.1l-0.3,0.2l0,0.2h-0.6L65.1,23l-0.4,0.1L64.1,24l-0.2,0.9l-0.1,0.8l0.1,0.5l-0.1,0.4l0,0.3l-0.4-0.2   l-0.2-0.3l-0.7-0.2l-0.7-0.4l-0.6-0.5l-0.4-0.4l-0.4,0.1L60,24.9l-0.2-0.2l-0.4,0L58.9,25l-0.5,0.7l-0.2-0.1l-0.6-0.4l-0.3,0   l-0.3,0.3V26l0.1,0.4l0.5,0.3l0.5-0.1l0.6,0.6l0.5,0.1h0.5l0.2,0.3L59.5,28l-0.1,0.3L59,28.1l-0.6,0l-0.2,0.2l0,0.3L58.1,29   L57.5,29.6L57.5,29.6z M56.8,42.3l0-0.4l0.1-0.3l-0.1-0.1l-0.3,0.2l0-0.3l0.2-0.8l0.2-0.2l0.1,0.3l0,0.3l0.3,0.1l0.1,0.2L57.2,42   l-0.2,0.2L56.8,42.3L56.8,42.3z M39.8,57.9l0.2,0.2l0.1-0.1l-0.3-0.2L39.8,57.9L39.8,57.9L39.8,57.9z M39.7,58.2l0.1,0.1l0.1-0.1   L39.7,58.2L39.7,58.2z M39.4,58.5l0.2,0.1l0.1-0.1L39.4,58.5L39.4,58.5z M39.1,58.7l0.1,0.2l0.3-0.1L39.1,58.7L39.1,58.7z    M38.8,59.9l-0.2-0.5l0-0.3l0.2-0.1l0,0.3l0.3,0.1l0.2,0.3l-0.3,0.2L38.8,59.9L38.8,59.9z M42.3,60.2l0-0.2l0.1-0.2l0.2,0.1l0,0.3   L42.3,60.2L42.3,60.2z M41.9,60.9l0.2-0.2l0.1,0.1L42,61L41.9,60.9L41.9,60.9z M41.7,59.7l-0.2,0.2l0.1,0.4l0.2,0.3l0.2,0l0.1-0.4   l-0.3-0.4L41.7,59.7L41.7,59.7L41.7,59.7z M51.6,54.1l-0.2-0.5l0-0.4l0.2-0.2l0.2,0l0.1,0.3l-0.1,0.3l0.1,0.2l-0.1,0.3L51.6,54.1   L51.6,54.1z M50,53.7l0.4-0.3l0.3,0.1l0,0.2l-0.3,0.1L50,53.7L50,53.7z M47.9,58.6l0.2,0.1l0.1-0.2l0.3,0.1l0.2-0.1l0-0.3l-0.4-0.4   l0.2-0.4l0.2-0.7l0.5-0.3l0.1-0.2l0.5,0.1l0.6,0.4l0.2,0.3l0.3-0.1l0.2-0.8l0.5-0.5l0-0.3l-0.2-0.2l-0.1-0.3L51,54.3l-0.3,0   l-0.3-0.2l-0.6,0l-0.6,0.5v0.3L49,55.1l-0.4,0.1l-0.3,0.2L48,55.4l-0.3-0.6l-0.2,0l-0.6,0.7l0,0.4l-0.4,0.3l-0.1,0.5l0.6,0.2   l0.1,0.4L47,57.4v0.2l0.4,0.5l0.6,0.1L47.9,58.6L47.9,58.6z M44.9,66.4L44.6,66l-0.3,0.1l-0.1,0.3l0.3,0.5l0.4,0.1l0.1-0.2   L44.9,66.4L44.9,66.4z M45.3,65.9l-0.1-0.7l0-0.3l0.3,0.2l0,0.4l-0.1,0.3L45.3,65.9L45.3,65.9z M44.5,64.6l0.4-0.3l0.4-0.6   l-0.4-0.4l0-0.2l0.2-0.1l0.3,0.1l0.2,0.1l0.1-0.5l0-0.7l-0.1-0.4l0-1.3l0-0.7l0.2-0.4l0.4-0.4l-0.1-0.3L46,58.3l0-0.4l-0.2,0   l0.1-0.3l-0.8,0l-0.1-0.2l0.4-0.2l0.1-0.3l-0.1-0.6L45,56.1l-0.4,0.1v0.1l-0.3,0.2L44,56.5l-0.5-0.5l0.1-0.3l0.7-0.4l0.6-0.1   l0.7,0.2l0.3,0.2l0.1-0.2l0-0.3l0-0.5l-0.1-0.3l0.1-0.3l0.3,0l0.2,0.3l0.3,0l0.4-0.2l0.8-0.1l0.7-0.2l0.5,0l0.2,0.1l0.2-0.1l0-0.2   l0.5-0.3l0.1-0.2l0.5-0.4l0.5-0.2l0.7,0.1l0.4-0.1l0.2,0.2v0.4l-0.3,0.5l-0.1,0.4l0.2,0.1l0.1,0.4l0,0.4L52.4,55l0.1,0.4l0.5,0.2   l0.6,0.6l0.4,0.1l0.3-0.1l0.4-0.7l0-0.4l0.2-0.2l0.1-0.2L55,54.4l0.3-0.6l0.4-0.1h0.4l0.1-0.2l-0.1-0.2L56,52.9l-0.8-0.4l-0.1-0.2   l0.2-0.6l0.3-0.2l0.2-0.1l-0.1,0.2l0,0.5l0.2,0.1l0.2-0.1l0.1-0.1l0.3,0.1l0.2,0.2l0.2-0.1l0.2,0L57,52.3l-0.4,0.1l-0.1,0.1   l0.1,0.1l0.3-0.1l0.6-0.3l1.2,0.1l0.6-0.1l-0.2-0.1l-0.1-0.5l0.1-0.5l0.5-0.2l0.4,0.1l0.1,0.5L60,51.8l0.2,0.3l0.3,0l0.3-0.5   l-0.3-0.8l0.1-0.5l0.6-0.4l0.3,0l0.1-0.2l-0.2-0.3l0.1-0.5l0.3-0.2l0.4,0.1l0.1,0.2l-0.2,0.3L62.1,50l0.1,1.3l0.2,0.1l0.3-0.2   l0.2-0.4l0.4,0l0.4-0.5l0.2-0.6l-0.1-0.4l0.5-0.5l-0.1-0.3L64,48.3l-0.5-0.7L63.3,47l-0.1-1.1l0.2-1.3l0-0.9L63,42.1l-0.6-0.8   l0-0.6l0.1-0.7l0.7-0.3h0.3l0.2,0.3l0.1-0.2l-0.1-0.5l-0.1-0.3l-0.1-0.2l-0.1-0.5l0-0.2l0-0.3l0.2-0.3l0-0.1l0-0.4l-0.1-0.2l0-0.6   l0.1-0.3l-0.2-0.3l-0.1-0.9l-0.4-0.7h-0.2l-0.2-0.1l-0.1-1l-0.4-0.4l-0.9-1.1l-0.3-0.5l-0.2-0.7l-0.1-0.7l0-0.2l-0.3,0.2l-0.2,0   l-0.1-0.1l-0.4-0.2l-0.2,0l0,0.1l-0.2,0.6l0,0.4l0.2,0.2l0.2-0.1l0.5-0.5l0.2,0.6l-0.2,0.4L59.8,31l-0.3-0.2h-0.1l0.1,0.5l-0.2,0.2   L59,31.4L58.9,31l-0.1-0.5l-0.1-0.2l-0.3,0.1l-0.2-0.1l-0.1,0.4l0.2,0.7l0,0.5L58,31.9l-0.3,0.4l0,0.3l0.6,0.6l0.2,0.3l-0.2,0.6   L58,34.3l-0.4-0.1l-0.1,0.2l0.3,0.4l0.3-0.1l0.3-0.3l0.4,1l0.2,1.1L59,37.2l0,1.1l-0.4,1.6l0.1,0.6l-0.2,0.7l-0.6,0.3l-0.2,0.7   l0,0.8l-0.3,0.4l-0.1,0.5l-0.6,0.5L55.8,45l-0.4,0.1l-0.2,0.4l-0.6-0.3l-0.5-0.7l0-0.3l0.2-0.1l0.2-0.4l0-0.2l0.3-0.3l0-0.1   l-0.5,0.1l-0.4,0.4l-0.5,0.2l-0.1,0.4l0.3,0.5l0.1,1.1l-0.1,0.5L53.1,47l0,0.3l-0.2,0.2l-0.1,0.8l0.2,0.2l0,0.3L52.9,49l0.1,0.1   l-0.1,0.3l-0.2,0l0.1,0.2l-0.3,0.1l-0.2-0.2l-0.3,0.2l-0.2-0.1l-0.1-0.5l-0.1-0.1l-0.3,0.2l-0.3,0l-0.1-0.1l-1,0.3l-0.5,0.2   l-0.5,0.2l-0.6,0l-0.6,0.2l-0.2-0.1l-0.5,0.1L46,50.9l-0.2,0.5l-0.3,0.2L45.5,52l-0.6,0.7l-0.4,0.1l-0.3,0.5L44,53.6l-0.3,0.4   L43,54l-0.2,0.3l0.1,0.7l0.2,0.1l0.1,0.3l-0.1,0.2l-0.4,0l-0.5,0.4l-0.1,0.3l-0.3,0.2l-0.4,0.5l-0.2,0.4l-0.4,0l-0.4,0.2h0.2l0.2,0   l0.2,0.4l0.2,0.5l-0.2,0.1L41,58.5l-0.2-0.3l-0.1,0.4l0.1,0.4l0.3,0.1l0.1,0.3L41,59.6l0.2-0.1l0.2-0.3l0.3-0.1l0.2,0.1l-0.2,0.2   l0.2,0.1l0.4-0.1l0-0.4L42,58.7l-0.4,0.1l0-0.2l0.1-0.2l-0.1-0.3l0.2-0.2l0.4,0.1l0.4,0.7l0.1,0.5l0.2,0.2l0,0.8l-0.3,0.7l-0.4,0   l0.1,0.3l0.3,0.6l0.1,0.8l0.4,0.4l0,0.4L43,63.7l0.3,0.4l0.4-0.1l0.3,0.2l0.1-0.2v-0.2l-0.3-0.5v-0.7l0.2-0.2l0.2,0.2l-0.1,0.2   l0,0.2l0.3,0.4l0.1,0.6l-0.1,0.4L44.5,64.6z"/></g><text x="0" y="115" fill="#000000" font-size="5px" font-weight="bold" font-family="'Helvetica Neue', Helvetica, Arial-Unicode, Arial, Sans-serif">Created by Tom Walsh</text><text x="0" y="120" fill="#000000" font-size="5px" font-weight="bold" font-family="'Helvetica Neue', Helvetica, Arial-Unicode, Arial, Sans-serif">from the Noun Project</text></svg>