<svg xmlns:dc="http://purl.org/dc/elements/1.1/" xmlns:cc="http://creativecommons.org/ns#" xmlns:rdf="http://www.w3.org/1999/02/22-rdf-syntax-ns#" xmlns:svg="http://www.w3.org/2000/svg" xmlns="http://www.w3.org/2000/svg" xmlns:sodipodi="http://sodipodi.sourceforge.net/DTD/sodipodi-0.dtd" xmlns:inkscape="http://www.inkscape.org/namespaces/inkscape" version="1.1" x="0px" y="0px" viewBox="0 0 100 125"><g transform="translate(0,-952.36218)"><path style="text-indent:0;text-transform:none;direction:ltr;block-progression:tb;baseline-shift:baseline;color:#000000;enable-background:accumulate;" d="m 26.031275,961.79966 0,7.75 47.90625,0 0,-7.75 -47.90625,0 z m -2.375,2.6875 -2.90625,5.0625 2.90625,0 0,-5.0625 z m 52.6875,0 0,5.0625 2.90625,0 -2.90625,-5.0625 z m -56.46875,7.46875 0,22.62499 c 4.85085,-2.3994 9.76726,-3.5131 14.75,-3.6562 a 1.20012,1.20012 0 0 1 0.0312,0 c 7.08162,0.012 13.58122,2.5028 19.59375,5 6.01252,2.4973 11.56434,4.974 16.65625,5.3125 3.18412,0.2118 6.19134,-0.3709 9.21875,-2.3125 l 0,-26.96879 -60.25,0 z m 14.78125,21.37499 c -5.02683,0.1486 -9.89792,1.343 -14.78125,3.9688 l 0,18.375 c 5.0222,-1.7824 9.83595,-2.2348 14.5,-1.9062 a 1.20012,1.20012 0 0 1 0.0625,0 c 14.5883,1.7743 24.81414,7.6853 34.46875,8.0937 3.68846,0.1562 7.3169,-0.4705 11.21875,-2.375 l 0,-17.8125 c -3.06401,1.6262 -6.22377,2.1783 -9.375,1.9687 -5.73745,-0.3815 -11.47359,-3.0229 -17.4375,-5.5 -5.95437,-2.4731 -12.117,-4.7939 -18.625,-4.8125 -0.0104,0 -0.0209,0 -0.0312,0 z m -4.15625,22.7501 c -3.44427,0.1081 -6.9669,0.7515 -10.625,2.1562 l 0,24.6875 60.25,0 0,-20.7812 c -3.87865,1.6925 -7.6217,2.2499 -11.3125,2.0937 -10.5079,-0.4445 -20.55163,-6.3715 -34.59375,-8.0937 l -0.0625,0 c -1.21577,-0.083 -2.42887,-0.1005 -3.65625,-0.062 z" fill="#000000" fill-opacity="1" fill-rule="nonzero" stroke="none" marker="none" visibility="visible" display="inline" overflow="visible"/><path d="m 26.031275,961.79966 0,7.75 47.90625,0 0,-7.75 -47.90625,0 z m -2.375,2.6875 -2.90625,5.0625 2.90625,0 0,-5.0625 z m 52.6875,0 0,5.0625 2.90625,0 -2.90625,-5.0625 z m -56.46875,7.46875 0,22.62499 c 4.85085,-2.3994 9.76726,-3.5131 14.75,-3.6562 a 1.20012,1.20012 0 0 1 0.0312,0 c 7.08162,0.012 13.58122,2.5028 19.59375,5 6.01252,2.4973 11.56434,4.974 16.65625,5.3125 3.18412,0.2118 6.19134,-0.3709 9.21875,-2.3125 l 0,-26.96879 -60.25,0 z m 14.78125,21.37499 c -5.02683,0.1486 -9.89792,1.343 -14.78125,3.9688 l 0,18.375 c 5.0222,-1.7824 9.83595,-2.2348 14.5,-1.9062 a 1.20012,1.20012 0 0 1 0.0625,0 c 14.5883,1.7743 24.81414,7.6853 34.46875,8.0937 3.68846,0.1562 7.3169,-0.4705 11.21875,-2.375 l 0,-17.8125 c -3.06401,1.6262 -6.22377,2.1783 -9.375,1.9687 -5.73745,-0.3815 -11.47359,-3.0229 -17.4375,-5.5 -5.95437,-2.4731 -12.117,-4.7939 -18.625,-4.8125 -0.0104,0 -0.0209,0 -0.0312,0 z m -4.15625,22.7501 c -3.44427,0.1081 -6.9669,0.7515 -10.625,2.1562 l 0,24.6875 60.25,0 0,-20.7812 c -3.87865,1.6925 -7.6217,2.2499 -11.3125,2.0937 -10.5079,-0.4445 -20.55163,-6.3715 -34.59375,-8.0937 l -0.0625,0 c -1.21577,-0.083 -2.42887,-0.1005 -3.65625,-0.062 z" style="text-indent:0;text-transform:none;direction:ltr;block-progression:tb;baseline-shift:baseline;color:#000000;enable-background:accumulate;" fill="#000000" fill-opacity="1" fill-rule="nonzero" stroke="none" marker="none" visibility="visible" display="inline" overflow="visible"/></g><text x="0" y="115" fill="#000000" font-size="5px" font-weight="bold" font-family="'Helvetica Neue', Helvetica, Arial-Unicode, Arial, Sans-serif">Created by Artdabana@Design</text><text x="0" y="120" fill="#000000" font-size="5px" font-weight="bold" font-family="'Helvetica Neue', Helvetica, Arial-Unicode, Arial, Sans-serif">from the Noun Project</text></svg>